<?xml version="1.0" encoding="UTF-8" standalone="no"?>
<svg
   xmlns:dc="http://purl.org/dc/elements/1.1/"
   xmlns:cc="http://creativecommons.org/ns#"
   xmlns:rdf="http://www.w3.org/1999/02/22-rdf-syntax-ns#"
   xmlns:svg="http://www.w3.org/2000/svg"
   xmlns="http://www.w3.org/2000/svg"
   xmlns:xlink="http://www.w3.org/1999/xlink"
   xmlns:sodipodi="http://sodipodi.sourceforge.net/DTD/sodipodi-0.dtd"
   xmlns:inkscape="http://www.inkscape.org/namespaces/inkscape"
   sodipodi:docname="fluid.svg"
   inkscape:version="1.0beta2 (2b71d25d45, 2019-12-03)"
   version="1.1"
   id="svg13094"
   height="64"
   width="64">
  <sodipodi:namedview
     inkscape:document-rotation="0"
     inkscape:snap-page="true"
     inkscape:showpageshadow="false"
     showborder="true"
     fit-margin-bottom="0"
     fit-margin-right="0"
     fit-margin-left="0"
     fit-margin-top="0"
     inkscape:snap-global="true"
     inkscape:window-maximized="1"
     inkscape:window-y="26"
     inkscape:window-x="0"
     inkscape:window-height="1022"
     inkscape:window-width="1920"
     inkscape:guide-bbox="true"
     showguides="false"
     inkscape:snap-center="true"
     inkscape:snap-object-midpoints="true"
     inkscape:snap-midpoints="true"
     inkscape:snap-smooth-nodes="true"
     inkscape:object-nodes="true"
     inkscape:snap-intersection-paths="true"
     inkscape:object-paths="true"
     inkscape:snap-bbox-midpoints="true"
     inkscape:snap-bbox-edge-midpoints="true"
     inkscape:bbox-nodes="true"
     inkscape:bbox-paths="true"
     inkscape:snap-bbox="true"
     showgrid="true"
     inkscape:current-layer="g4393"
     inkscape:document-units="px"
     inkscape:cy="35.275418"
     inkscape:cx="28.125187"
     inkscape:zoom="11.313709"
     inkscape:pageshadow="2"
     inkscape:pageopacity="0"
     borderopacity="1.0"
     bordercolor="#666666"
     pagecolor="#ffffff"
     id="base">
    <inkscape:grid
       spacingy="1"
       spacingx="1"
       originy="18"
       originx="1.6362304e-08"
       snapvisiblegridlinesonly="true"
       enabled="true"
       visible="true"
       empspacing="5"
       id="grid3075"
       type="xygrid" />
    <sodipodi:guide
       id="guide9148"
       position="-11,30"
       orientation="0,1" />
    <sodipodi:guide
       id="guide9150"
       position="32,70"
       orientation="1,0" />
  </sodipodi:namedview>
  <defs
     id="defs13096">
    <linearGradient
       id="linearGradient4571">
      <stop
         style="stop-color:#54beff;stop-opacity:0.48655915"
         offset="0"
         id="stop4573" />
      <stop
         style="stop-color:#54beff;stop-opacity:0;"
         offset="1"
         id="stop4575" />
    </linearGradient>
    <linearGradient
       id="linearGradient4264"
       inkscape:collect="always">
      <stop
         id="stop4266"
         offset="0"
         style="stop-color:#71bf51;stop-opacity:1" />
      <stop
         id="stop4268"
         offset="1"
         style="stop-color:#6aae4e;stop-opacity:0;" />
    </linearGradient>
    <linearGradient
       id="linearGradient4254">
      <stop
         style="stop-color:#5fc933;stop-opacity:1;"
         offset="0"
         id="stop4256" />
      <stop
         id="stop4260"
         offset="0.50996751"
         style="stop-color:#40951d;stop-opacity:0;" />
      <stop
         style="stop-color:#61c537;stop-opacity:1;"
         offset="1"
         id="stop4258" />
    </linearGradient>
    <linearGradient
       id="linearGradient4206">
      <stop
         id="stop4208"
         offset="0"
         style="stop-color:#ffffff;stop-opacity:0.49551973" />
      <stop
         style="stop-color:#ffffff;stop-opacity:0"
         offset="0.51322287"
         id="stop4212" />
      <stop
         id="stop4210"
         offset="1"
         style="stop-color:#ffffff;stop-opacity:0.56899643" />
    </linearGradient>
    <linearGradient
       id="linearGradient4198"
       inkscape:collect="always">
      <stop
         id="stop4200"
         offset="0"
         style="stop-color:#6aae4e;stop-opacity:1" />
      <stop
         id="stop4202"
         offset="1"
         style="stop-color:#4f7141;stop-opacity:1" />
    </linearGradient>
    <linearGradient
       id="linearGradient4172">
      <stop
         id="stop4174"
         offset="0"
         style="stop-color:#ffffff;stop-opacity:0.8849386;" />
      <stop
         id="stop4176"
         offset="1"
         style="stop-color:#ffffff;stop-opacity:0;" />
    </linearGradient>
    <linearGradient
       id="linearGradient4004">
      <stop
         id="stop4006"
         offset="0"
         style="stop-color:#000000;stop-opacity:0" />
      <stop
         id="stop4008"
         offset="1"
         style="stop-color:#000000;stop-opacity:0.06981254;" />
    </linearGradient>
    <linearGradient
       id="linearGradient3996">
      <stop
         id="stop3998"
         offset="0"
         style="stop-color:#54beff;stop-opacity:0.86489981;" />
      <stop
         id="stop4000"
         offset="1"
         style="stop-color:#54beff;stop-opacity:0;" />
    </linearGradient>
    <linearGradient
       id="linearGradient3840">
      <stop
         id="stop3842"
         offset="0"
         style="stop-color:#0491ff;stop-opacity:1;" />
      <stop
         id="stop3844"
         offset="1"
         style="stop-color:#126cb6;stop-opacity:1;" />
    </linearGradient>
    <linearGradient
       id="linearGradient3832">
      <stop
         id="stop3834"
         offset="0"
         style="stop-color:#000000;stop-opacity:0.13445379;" />
      <stop
         id="stop3836"
         offset="1"
         style="stop-color:#000000;stop-opacity:0;" />
    </linearGradient>
    <linearGradient
       id="linearGradient3094">
      <stop
         id="stop3096"
         style="stop-color:#418d67;stop-opacity:1;"
         offset="0" />
      <stop
         id="stop3104"
         style="stop-color:#366189;stop-opacity:1;"
         offset="1" />
    </linearGradient>
    <radialGradient
       gradientUnits="userSpaceOnUse"
       gradientTransform="matrix(6.8856667e-8,1.5625001,-1.4375,6.3348129e-8,57.491254,-34.030912)"
       r="32"
       fy="17.037395"
       fx="30.739782"
       cy="17.037395"
       cx="30.739782"
       id="radialGradient3886"
       xlink:href="#linearGradient3094"
       inkscape:collect="always" />
    <linearGradient
       gradientTransform="translate(-2,0)"
       gradientUnits="userSpaceOnUse"
       y2="21.875002"
       x2="38.053802"
       y1="21.875002"
       x1="49.687664"
       id="linearGradient3838"
       xlink:href="#linearGradient3832"
       inkscape:collect="always" />
    <radialGradient
       gradientUnits="userSpaceOnUse"
       gradientTransform="matrix(3.7405166e-8,1.5995465,-0.72929106,1.7054367e-8,66.869409,-31.320082)"
       r="12.002016"
       fy="34.100803"
       fx="52.089813"
       cy="34.100803"
       cx="52.089813"
       id="radialGradient3846"
       xlink:href="#linearGradient3840"
       inkscape:collect="always" />
    <linearGradient
       gradientTransform="translate(-2,0)"
       gradientUnits="userSpaceOnUse"
       y2="47"
       x2="44"
       y1="52"
       x1="44"
       id="linearGradient4002"
       xlink:href="#linearGradient3996"
       inkscape:collect="always" />
    <linearGradient
       gradientTransform="translate(-2,0)"
       gradientUnits="userSpaceOnUse"
       y2="39"
       x2="44"
       y1="53"
       x1="44"
       id="linearGradient4010"
       xlink:href="#linearGradient4004"
       inkscape:collect="always" />
    <linearGradient
       gradientTransform="translate(-2,0)"
       gradientUnits="userSpaceOnUse"
       y2="39"
       x2="44"
       y1="53"
       x1="44"
       id="linearGradient4014"
       xlink:href="#linearGradient4004"
       inkscape:collect="always" />
    <linearGradient
       gradientTransform="translate(-2,0)"
       y2="30"
       x2="48"
       y1="30"
       x1="40"
       gradientUnits="userSpaceOnUse"
       id="linearGradient4071"
       xlink:href="#linearGradient4206"
       inkscape:collect="always" />
    <linearGradient
       gradientTransform="translate(-2,0)"
       y2="36"
       x2="48.700001"
       y1="36"
       x1="39"
       gradientUnits="userSpaceOnUse"
       id="linearGradient4074"
       xlink:href="#linearGradient4206-5"
       inkscape:collect="always" />
    <linearGradient
       gradientTransform="matrix(-0.08333333,0,0,0.97674419,19,0.23255814)"
       y2="30"
       x2="24"
       y1="30"
       x1="12"
       gradientUnits="userSpaceOnUse"
       id="linearGradient4128"
       xlink:href="#linearGradient4172"
       inkscape:collect="always" />
    <linearGradient
       gradientTransform="translate(4,0)"
       gradientUnits="userSpaceOnUse"
       y2="22"
       x2="12"
       y1="22"
       x1="24"
       id="linearGradient3838-0"
       xlink:href="#linearGradient3832"
       inkscape:collect="always" />
    <linearGradient
       gradientTransform="translate(4,0)"
       y2="30"
       x2="24"
       y1="30"
       x1="12"
       gradientUnits="userSpaceOnUse"
       id="linearGradient4170"
       xlink:href="#linearGradient4206"
       inkscape:collect="always" />
    <radialGradient
       r="6"
       fy="33.5"
       fx="18"
       cy="33.5"
       cx="18"
       gradientTransform="matrix(0,4.5,-2.25,0,97.375,-55)"
       gradientUnits="userSpaceOnUse"
       id="radialGradient4250"
       xlink:href="#linearGradient4198"
       inkscape:collect="always" />
    <linearGradient
       gradientTransform="translate(4,0)"
       gradientUnits="userSpaceOnUse"
       y2="39.5"
       x2="24"
       y1="39.5"
       x1="12"
       id="linearGradient4252"
       xlink:href="#linearGradient4254"
       inkscape:collect="always" />
    <linearGradient
       id="linearGradient4206-5">
      <stop
         id="stop4208-1"
         offset="0"
         style="stop-color:#ffffff;stop-opacity:0.49551973" />
      <stop
         style="stop-color:#ffffff;stop-opacity:0"
         offset="0.51322287"
         id="stop4212-8" />
      <stop
         id="stop4210-4"
         offset="1"
         style="stop-color:#ffffff;stop-opacity:0.56899643" />
    </linearGradient>
    <linearGradient
       y2="47"
       x2="18"
       y1="52"
       x1="18"
       gradientTransform="matrix(1.1111111,0,0,1.4,2.5555557,-20.8)"
       gradientUnits="userSpaceOnUse"
       id="linearGradient4552"
       xlink:href="#linearGradient4264"
       inkscape:collect="always" />
    <linearGradient
       gradientUnits="userSpaceOnUse"
       y2="41"
       x2="24"
       y1="42"
       x1="27"
       id="linearGradient4569"
       xlink:href="#linearGradient4571"
       inkscape:collect="always" />
    <linearGradient
       y2="30"
       x2="24"
       y1="30"
       x1="12"
       gradientTransform="matrix(0.25,0,0,0.97674419,15,0.23255814)"
       gradientUnits="userSpaceOnUse"
       id="linearGradient3077"
       xlink:href="#linearGradient4172"
       inkscape:collect="always" />
  </defs>
  <metadata
     id="metadata13099">
    <rdf:RDF>
      <cc:Work
         rdf:about="">
        <dc:format>image/svg+xml</dc:format>
        <dc:type
           rdf:resource="http://purl.org/dc/dcmitype/StillImage" />
        <dc:title></dc:title>
      </cc:Work>
    </rdf:RDF>
  </metadata>
  <path
     inkscape:connector-curvature="0"
     style="color:#000000;fill:url(#radialGradient3886);fill-opacity:1;fill-rule:nonzero;stroke:none;stroke-width:2.28571415000000000;marker:none;visibility:visible;display:inline;overflow:visible;enable-background:accumulate"
     d="m 0,4 0,30 0,28 2,2 30,0 30,0 2,-2 L 64,34 64,4 32,4 0,4 z"
     id="path6538" />
  <path
     id="path6688"
     d="M 2 0 L 0 1 L 0 4 L 19.5625 4 L 39.125 4 L 64 4 L 64 1 L 62 0 L 39.125 0 L 19.5625 0 L 2 0 z "
     style="color:#000000;fill:#6bcfbb;fill-opacity:1;fill-rule:nonzero;stroke:none;marker:none;visibility:visible;display:inline;overflow:visible;enable-background:accumulate" />
  <g
     transform="translate(-0.62500009,0.082283)"
     inkscape:export-ydpi="90"
     inkscape:export-xdpi="90"
     inkscape:export-filename="folder.png"
     id="g3043" />
  <g
     style="fill:#ffffff"
     inkscape:label="#g3701"
     transform="matrix(1.0385892,0,0,1.0385892,1214.7222,1878.8121)"
     id="scalable" />
  <rect
     transform="scale(1,-1)"
     y="-54"
     x="5"
     height="3"
     width="56"
     id="rect4517"
     style="color:#000000;fill:#e7ecf0;fill-opacity:1;fill-rule:nonzero;stroke:none;stroke-width:2;marker:none;visibility:visible;display:inline;overflow:visible;enable-background:accumulate" />
  <path
     id="path4366"
     d="M 63 0.5 L 63 34 L 63 63 L 64 62 L 64 34 L 64 1 L 63 0.5 z M 63 63 L 32 63 L 1 63 L 2 64 L 32 64 L 62 64 L 63 63 z "
     style="fill:#000000;fill-opacity:0.10215054;fill-rule:nonzero" />
  <path
     id="path3864"
     d="M 0 1 L 0 34 L 0 62 L 1 63 L 1 34 L 1 5 L 2 4 L 1 3.46875 L 1 1 L 0 1 z "
     style="fill:#ffffff;fill-opacity:0.30107528;fill-rule:nonzero" />
  <path
     inkscape:connector-curvature="0"
     style="fill:#000000;fill-opacity:0.10215054"
     id="path3028"
     d="M 64,6 62,4 64,3 z" />
  <path
     id="path4298"
     d="M 0 3 L 0 6 L 2 4 L 32 4 L 62 4 L 64 3 L 32 3 L 0 3 z "
     style="fill:#ffffff;fill-opacity:0.39426523;fill-rule:nonzero" />
  <path
     id="path4444"
     d="M 2 0 L 0 1 L 32 1 L 64 1 L 62 0 L 32 0 L 2 0 z "
     style="fill:#000000;fill-opacity:0.10215054;fill-rule:nonzero" />
  <path
     inkscape:connector-curvature="0"
     id="path4069-3"
     d="m 22,17 0,36 12,0 0,-36 -12,0 z m 20,11 0,2 2,0 0,12 -7,10 c -0.31267,0.402704 -0.538984,0.718777 -0.6875,1 L 60,53 l 0,-2 -2,0 -6,-9 0,-12 2,0 0,-2 -12,0 z"
     style="color:#000000;fill:#000000;fill-opacity:0.07795697;fill-rule:nonzero;stroke:none;stroke-width:2;marker:none;visibility:visible;display:inline;overflow:visible;enable-background:accumulate" />
  <path
     sodipodi:nodetypes="ccccccccccccc"
     inkscape:connector-curvature="0"
     id="rect3000-5"
     d="m 22,33 0,20 12,0 0,-20 z M 41.1875,46 37,52 c -0.31267,0.402704 -0.538984,0.718777 -0.6875,1 L 61,53 61,51 58.375,51.09375 54.8125,46 z"
     style="color:#000000;fill:#000000;fill-opacity:0.07795697;fill-rule:nonzero;stroke:none;stroke-width:2;marker:none;visibility:visible;display:inline;overflow:visible;enable-background:accumulate" />
  <g
     transform="translate(-1,0)"
     id="g4401">
    <path
       style="color:#000000;fill:url(#linearGradient4074);fill-opacity:1;fill-rule:nonzero;stroke:none;stroke-width:2;marker:none;visibility:visible;display:inline;overflow:visible;enable-background:accumulate"
       d="m 38,35 -7,10 c -1.09391,1.408903 -0.999999,1.823222 -1,3 l 0,3 c 1e-6,1.000001 1,2 2,2 l 20,0 c 1,0 1.999999,-0.999999 2,-2 l 0,-3 c -10e-7,-1.176778 0.09391,-1.591097 -1,-3 l -7,-10 -8,0 z"
       id="path3807-4"
       inkscape:connector-curvature="0" />
    <path
       style="color:#000000;fill:url(#linearGradient3838);fill-opacity:1;fill-rule:nonzero;stroke:none;stroke-width:2;marker:none;visibility:visible;display:inline;overflow:visible;enable-background:accumulate"
       d="m 36,21 0,2 2,0 0,12 -7,10 c -1.09391,1.408903 -0.999999,1.823222 -1,3 l 0,3 c 1e-6,1.000001 1,2 2,2 l 20,0 c 1,0 1.999999,-0.999999 2,-2 l 0,-3 c -10e-7,-1.176778 0.09391,-1.591097 -1,-3 l -7,-10 0,-12 2,0 0,-2 -12,0 z m 3,1 6,0 0,1 0,12 0,0.3125 0.1875,0.25 7,10 0,0.03125 0.03125,0.03125 C 53.237417,46.936993 52.999999,46.770019 53,48 l 0,3 c 0,0.166668 -0.125885,0.438385 -0.34375,0.65625 C 52.438385,51.874115 52.166667,52 52,52 L 32,52 C 31.833333,52 31.561615,51.874115 31.34375,51.65625 31.125885,51.438385 31,51.166668 31,51 l 0,-3 c 1e-6,-1.229981 -0.237417,-1.063007 0.78125,-2.375 l 0.03125,-0.03125 0,-0.03125 7,-10 L 39,35.3125 39,35 39,23 39,22 z"
       id="path3807"
       inkscape:connector-curvature="0" />
    <path
       id="path4069"
       d="m 36,21 0,2 2,0 0,12 8,0 0,-12 2,0 0,-2 -12,0 z"
       style="color:#000000;fill:url(#linearGradient4071);fill-opacity:1;fill-rule:nonzero;stroke:none;stroke-width:2;marker:none;visibility:visible;display:inline;overflow:visible;enable-background:accumulate"
       inkscape:connector-curvature="0" />
    <path
       style="color:#000000;fill:url(#radialGradient3846);fill-opacity:0.6745098;fill-rule:nonzero;stroke:none;stroke-width:2;marker:none;visibility:visible;display:inline;overflow:visible;enable-background:accumulate"
       d="M 35.1875,39 31,45 c -1.09391,1.408903 -0.999999,1.823222 -1,3 l 0,3 c 1e-6,1.000001 1,2 2,2 l 20,0 c 1,0 1.999999,-0.999999 2,-2 l 0,-3 c -10e-7,-1.176778 0.09391,-1.591097 -1,-3 l -4.1875,-6 -13.625,0 z"
       id="rect3000"
       inkscape:connector-curvature="0" />
    <path
       style="color:#000000;fill:url(#linearGradient4014);fill-opacity:1;fill-rule:nonzero;stroke:none;stroke-width:2;marker:none;visibility:visible;display:inline;overflow:visible;enable-background:accumulate"
       d="M 35.1875,39 31,45 c -1.09391,1.408903 -0.999999,1.823222 -1,3 l 0,3 c 1e-6,1.000001 1,2 2,2 l 20,0 c 1,0 1.999999,-0.999999 2,-2 l 0,-3 c -10e-7,-1.176778 0.09391,-1.591097 -1,-3 l -4.1875,-6 -3.6875,0 5.40625,7.71875 0.0625,0.0625 0.03125,0.0625 c 0.43409,0.559086 0.514773,0.517757 0.5,0.5 C 51.084091,47.370257 51,47.498855 51,48 l 0,2 -18,0 0,-2 c 0,-0.501145 -0.08409,-0.629742 -0.125,-0.65625 -0.01477,0.01776 0.06591,0.05909 0.5,-0.5 l 0.03125,-0.0625 0.0625,-0.0625 L 38.875,39 35.1875,39 z"
       id="path3889"
       inkscape:connector-curvature="0" />
    <path
       style="color:#000000;fill:url(#linearGradient4010);fill-opacity:1;fill-rule:nonzero;stroke:none;stroke-width:2;marker:none;visibility:visible;display:inline;overflow:visible;enable-background:accumulate"
       d="M 35.1875,39 31,45 c -1.09391,1.408903 -0.999999,1.823222 -1,3 l 0,3 c 1e-6,1.000001 1,2 2,2 l 20,0 c 1,0 1.999999,-0.999999 2,-2 l 0,-3 c -10e-7,-1.176778 0.09391,-1.591097 -1,-3 l -4.1875,-6 -1.21875,0 4.59375,6.5625 0,0.03125 0.03125,0.03125 C 53.237417,46.936993 52.999999,46.770019 53,48 l 0,3 c 0,0.166668 -0.125885,0.438385 -0.34375,0.65625 C 52.438385,51.874115 52.166667,52 52,52 L 32,52 C 31.833333,52 31.561615,51.874115 31.34375,51.65625 31.125885,51.438385 31,51.166668 31,51 l 0,-3 c 1e-6,-1.229981 -0.237417,-1.063007 0.78125,-2.375 l 0.03125,-0.03125 0,-0.03125 L 36.40625,39 35.1875,39 z"
       id="path3807-8"
       inkscape:connector-curvature="0" />
    <path
       sodipodi:nodetypes="ccccccc"
       inkscape:connector-curvature="0"
       id="rect4529"
       d="m 38,35 1,0 -5,11 0,6 -3,0 0,-6 z"
       style="color:#000000;fill:#579f38;fill-opacity:0.5564516;fill-rule:nonzero;stroke:none;stroke-width:2;marker:none;visibility:visible;display:inline;overflow:visible;enable-background:accumulate" />
    <rect
       style="color:#000000;fill:url(#linearGradient4002);fill-opacity:1;fill-rule:nonzero;stroke:none;stroke-width:6;marker:none;visibility:visible;display:inline;overflow:visible;enable-background:accumulate"
       id="rect3994"
       width="22"
       height="5"
       x="31"
       y="47" />
    <path
       inkscape:connector-curvature="0"
       id="path4087"
       d="m 36,21 0,1 2,0 0,13 -5,12 0,4 5,0 0,-4 2,-12 0,-13 -1,0 0,-1 -3,0 z"
       style="color:#000000;fill:#ffffff;fill-opacity:0.36827958;fill-rule:nonzero;stroke:none;stroke-width:6;marker:none;visibility:visible;display:inline;overflow:visible;enable-background:accumulate" />
    <path
       sodipodi:nodetypes="ccccccccccccc"
       inkscape:connector-curvature="0"
       id="path4089"
       d="m 37,21 0,1 2,0 0,13 -5,12 0,4 6,0 0,-4 1,-12 0,-13 -1,0 0,-1 z"
       style="color:#000000;fill:#ffffff;fill-opacity:0.23835126;fill-rule:nonzero;stroke:none;stroke-width:6;marker:none;visibility:visible;display:inline;overflow:visible;enable-background:accumulate" />
    <path
       style="color:#000000;fill:#ffffff;fill-opacity:0.36827958;fill-rule:nonzero;stroke:none;stroke-width:6;marker:none;visibility:visible;display:inline;overflow:visible;enable-background:accumulate"
       d="m 37,21 0,1 2,0 0,13 -4,12 0,4 1,0 0,-4 4,-12 0,-13 -1,0 0,-1 z"
       id="rect4076"
       inkscape:connector-curvature="0"
       sodipodi:nodetypes="ccccccccccccc" />
    <rect
       y="21"
       x="36"
       height="1"
       width="12"
       id="rect4630-9"
       style="color:#000000;fill:#ffffff;fill-opacity:0.56362011;fill-rule:nonzero;stroke:none;stroke-width:2;marker:none;visibility:visible;display:inline;overflow:visible;enable-background:accumulate" />
  </g>
  <g
     transform="translate(-1,0)"
     id="g4393">
    <path
       sodipodi:nodetypes="ccccc"
       inkscape:connector-curvature="0"
       id="rect4168"
       d="m 16,13 12,0 0,40 -12,0 z"
       style="color:#000000;fill:url(#linearGradient4170);fill-opacity:1;fill-rule:nonzero;stroke:none;stroke-width:2;marker:none;visibility:visible;display:inline;overflow:visible;enable-background:accumulate" />
    <path
       sodipodi:nodetypes="cccccccccc"
       style="color:#000000;fill:url(#linearGradient3838-0);fill-opacity:1;fill-rule:nonzero;stroke:none;stroke-width:2;marker:none;visibility:visible;display:inline;overflow:visible;enable-background:accumulate"
       d="m 16,13 0,40 12,0 0,-40 z m 1,1 10,0 0,38 -10,0 z"
       id="rect4130"
       inkscape:connector-curvature="0" />
    <path
       sodipodi:nodetypes="ccccc"
       inkscape:connector-curvature="0"
       id="rect4248"
       d="m 16,26 12,0 0,27 -12,0 z"
       style="color:#000000;fill:url(#radialGradient4250);fill-opacity:1;fill-rule:nonzero;stroke:none;stroke-width:2;marker:none;visibility:visible;display:inline;overflow:visible;enable-background:accumulate" />
    <path
       sodipodi:nodetypes="ccccc"
       inkscape:connector-curvature="0"
       id="rect4178"
       d="m 16,26 12,0 0,27 -12,0 z"
       style="color:#000000;fill:url(#linearGradient4252);fill-opacity:1;fill-rule:nonzero;stroke:none;stroke-width:2;marker:none;visibility:visible;display:inline;overflow:visible;enable-background:accumulate" />
    <path
       sodipodi:nodetypes="ccccc"
       inkscape:connector-curvature="0"
       id="rect4550"
       d="m 17,45 10,0 0,7 -10,0 z"
       style="color:#000000;fill:url(#linearGradient4552);fill-opacity:1;fill-rule:nonzero;stroke:none;stroke-width:2;marker:none;visibility:visible;display:inline;overflow:visible;enable-background:accumulate" />
    <path
       style="color:#000000;fill:url(#linearGradient3077);fill-opacity:1;fill-rule:nonzero;stroke:none;stroke-width:2;marker:none;visibility:visible;display:inline;overflow:visible;enable-background:accumulate"
       d="m 18,13 3,0 0,39 -3,0 z"
       id="path3075"
       inkscape:connector-curvature="0"
       sodipodi:nodetypes="ccccc" />
    <path
       sodipodi:nodetypes="ccccc"
       inkscape:connector-curvature="0"
       id="rect4126"
       d="m 18,13 -1,0 0,39 1,0 z"
       style="color:#000000;fill:url(#linearGradient4128);fill-opacity:1;fill-rule:nonzero;stroke:none;stroke-width:2;marker:none;visibility:visible;display:inline;overflow:visible;enable-background:accumulate" />
    <path
       sodipodi:nodetypes="ccccc"
       inkscape:connector-curvature="0"
       id="rect4262"
       d="m 25,33 2,0 0,19 -2,0 z"
       style="color:#000000;fill:url(#linearGradient4569);fill-opacity:1;fill-rule:nonzero;stroke:none;stroke-width:2;marker:none;visibility:visible;display:inline;overflow:visible;enable-background:accumulate" />
    <path
       inkscape:connector-curvature="0"
       id="rect4590"
       d="m 22,18 0,1 4,0 0,-1 -4,0 z m 0,4 0,1 4,0 0,-1 -4,0 z m 0,4 0,1 4,0 0,-1 -4,0 z m 0,4 0,1 4,0 0,-1 -4,0 z m 0,4 0,1 4,0 0,-1 -4,0 z m 0,4 0,1 4,0 0,-1 -4,0 z m 0,4 0,1 4,0 0,-1 -4,0 z m 0,4 0,1 4,0 0,-1 -4,0 z"
       style="color:#000000;fill:#000000;fill-opacity:0.1971326;fill-rule:nonzero;stroke:none;stroke-width:2;marker:none;visibility:visible;display:inline;overflow:visible;enable-background:accumulate" />
    <rect
       y="13"
       x="16"
       height="1"
       width="12"
       id="rect4630"
       style="color:#000000;fill:#ffffff;fill-opacity:0.56362011;fill-rule:nonzero;stroke:none;stroke-width:2;marker:none;visibility:visible;display:inline;overflow:visible;enable-background:accumulate" />
  </g>
  <path
     sodipodi:nodetypes="ccccccccc"
     inkscape:connector-curvature="0"
     id="rect4519"
     d="m 5,54 56,0 0,-3 3,3 0,8 -2,2 -50,0 -7,-7 z"
     style="color:#000000;fill:#000000;fill-opacity:0.25358426;fill-rule:nonzero;stroke:none;stroke-width:2;marker:none;visibility:visible;display:inline;overflow:visible;enable-background:accumulate" />
  <rect
     y="54"
     x="5"
     height="3"
     width="56"
     id="rect4610"
     style="color:#000000;fill:#9197a7;fill-opacity:1;fill-rule:nonzero;stroke:none;stroke-width:2;marker:none;visibility:visible;display:inline;overflow:visible;enable-background:accumulate" />
</svg>
