<?xml version="1.0" encoding="UTF-8" standalone="no"?>
<!-- Created with Inkscape (http://www.inkscape.org/) -->

<svg
   xmlns:dc="http://purl.org/dc/elements/1.1/"
   xmlns:cc="http://creativecommons.org/ns#"
   xmlns:rdf="http://www.w3.org/1999/02/22-rdf-syntax-ns#"
   xmlns:svg="http://www.w3.org/2000/svg"
   xmlns="http://www.w3.org/2000/svg"
   xmlns:xlink="http://www.w3.org/1999/xlink"
   xmlns:sodipodi="http://sodipodi.sourceforge.net/DTD/sodipodi-0.dtd"
   xmlns:inkscape="http://www.inkscape.org/namespaces/inkscape"
   width="64"
   height="64"
   version="1.1"
   id="svg136"
   sodipodi:docname="keepassxc-locked.svg"
   inkscape:version="0.92.1 r15371">
  <sodipodi:namedview
     pagecolor="#ffffff"
     bordercolor="#666666"
     borderopacity="1"
     objecttolerance="10"
     gridtolerance="10"
     guidetolerance="10"
     inkscape:pageopacity="0"
     inkscape:pageshadow="2"
     inkscape:window-width="1920"
     inkscape:window-height="1009"
     id="namedview138"
     showgrid="false"
     inkscape:zoom="3.6875"
     inkscape:cx="32"
     inkscape:cy="32"
     inkscape:window-x="0"
     inkscape:window-y="0"
     inkscape:window-maximized="1"
     inkscape:current-layer="svg136" />
  <defs
     id="defs30">
    <radialGradient
       id="c"
       cx="20.26"
       cy="339.62"
       r="48.223"
       gradientTransform="matrix(1.3838,0,0,1.524,-3.126,-176.33)"
       gradientUnits="userSpaceOnUse">
      <stop
         stop-color="#ffffff"
         offset="0"
         id="stop2" />
      <stop
         stop-color="#dfefe2"
         offset="1"
         id="stop4" />
    </radialGradient>
    <radialGradient
       id="d"
       cx="124.51"
       cy="270.99"
       r="43.254"
       fx="91.222"
       fy="312.21"
       gradientTransform="matrix(-.54092 -.43877 .33631 -.41461 -5.7412 191.44)"
       gradientUnits="userSpaceOnUse">
      <stop
         stop-color="#bde6da"
         offset="0"
         id="stop7" />
      <stop
         stop-color="#ceecd6"
         stop-opacity="0"
         offset="1"
         id="stop9" />
    </radialGradient>
    <radialGradient
       id="e"
       cx="195.7"
       cy="424.52"
       r="71.328"
       fx="134.26"
       fy="478.61"
       gradientTransform="matrix(1.2172 .10115 -.019187 .23088 -35.033 236.71)"
       gradientUnits="userSpaceOnUse"
       xlink:href="#a" />
    <linearGradient
       id="a">
      <stop
         stop-color="#3cb058"
         offset="0"
         id="stop13" />
      <stop
         stop-color="#e3ebe5"
         offset="1"
         id="stop15" />
    </linearGradient>
    <radialGradient
       id="f"
       cx="200.68"
       cy="365.58"
       r="71.328"
       fx="135.64"
       fy="405.14"
       gradientTransform="matrix(1.2762 .03745 -.0039389 .13422 -49.304 273.66)"
       gradientUnits="userSpaceOnUse"
       xlink:href="#a" />
    <radialGradient
       id="g"
       cx="88.516"
       cy="335.78"
       r="84.766"
       gradientTransform="matrix(6.5569 0 0 .23345 -491.88 255.79)"
       gradientUnits="userSpaceOnUse">
      <stop
         stop-color="#ecf5ed"
         offset="0"
         id="stop19" />
      <stop
         stop-color="#cfe7d5"
         offset=".40563"
         id="stop21" />
      <stop
         stop-color="#58805c"
         offset=".66305"
         id="stop23" />
      <stop
         stop-color="#d7efe8"
         offset=".88296"
         id="stop25" />
      <stop
         stop-color="#dbffef"
         offset="1"
         id="stop27" />
    </radialGradient>
  </defs>
  <metadata
     id="metadata32">
    <rdf:RDF>
      <cc:Work
         rdf:about="">
        <dc:format>image/svg+xml</dc:format>
        <dc:type
           rdf:resource="http://purl.org/dc/dcmitype/StillImage" />
        <dc:title />
      </cc:Work>
    </rdf:RDF>
  </metadata>
  <path
     d="m0 2v60l2 2h60l2-2v-60h-32z"
     color="#000000"
     fill="#b3bbcf"
     id="path34" />
  <path
     d="m0 2v60l2 2h60l2-2v-60h-32z"
     color="#000000"
     fill="#b3bbcf"
     id="path36" />
  <path
     d="m2 0-2 1v1h63.999v-1l-2-1h-42.437z"
     color="#000000"
     fill="#e7ecf0"
     id="path38" />
  <path
     d="m64 4-2-2 2-1z"
     fill="#cbd1de"
     fill-opacity=".99228"
     id="path40" />
  <path
     d="m0 1v3l2-2z"
     fill="#f2f4f7"
     id="path42" />
  <circle
     cx="32"
     cy="33"
     r="23"
     fill="#519f1f"
     style="paint-order:normal;fill:#9f1f26;fill-opacity:1"
     id="circle44" />
  <g
     transform="matrix(0.60891,0,0,0.60891,10.442,6.4966)"
     id="g134"
     style="stroke-width:1.29480004">
    <g
       id="g116"
       style="opacity:0.74500002;fill:#165016">
      <path
         d="m 45.617,26.327 c -0.27119,0.2981 -0.43186,0.63114 -0.59662,0.99437 -0.21968,0.48431 -0.4141,1.0511 -0.59662,1.7015 -0.36505,1.3008 -0.66133,2.944 -0.90598,4.7509 -0.4893,3.6137 -0.68691,7.881 -0.22097,11.358 0.05498,0.4177 0.33722,0.79576 0.7292,0.95018 1.8726,0.74066 4.2545,1.2159 6.9385,1.591 v 16.661 l 0.46404,0.19887 0.57452,0.26516 -0.0221,20.44 2.4528,2.6296 h 2.2539 l 2.4307,-2.6517 v -20.418 l 0.99437,-0.46404 0.0221,-10.319 -0.0221,-0.0221 -1e-6,-6.3198 c 2.7023,-0.37605 5.0998,-0.84625 6.9827,-1.591 0.39198,-0.15441 0.67422,-0.53248 0.7292,-0.95017 0.17456,-1.3026 0.25798,-2.7029 0.26517,-4.1543 0.01555,-3.1426 -0.29134,-6.4789 -0.7734,-9.1703 -0.24103,-1.3457 -0.52602,-2.5359 -0.83969,-3.4913 -0.31368,-0.95546 -0.51655,-1.6667 -1.3037,-2.276 -1.2279,-0.95045 -2.8222,-1.0295 -4.5962,-1.149 -1.774,-0.11958 -3.6582,-0.11048 -5.016,-0.11048 -1.3578,0 -3.242,-0.0091 -5.016,0.11048 -1.774,0.11958 -3.3904,0.2207 -4.6183,1.1711 -0.1211,0.09374 -0.21896,0.1658 -0.30936,0.26517 z m 7.8666,3.7123 c 0.05562,-0.06736 0.13703,-0.13728 0.19887,-0.19887 0.17976,-0.17976 0.37174,-0.34118 0.59662,-0.46404 0.22503,-0.12224 0.47099,-0.18951 0.7292,-0.24307 0.0023,-4.95e-4 0.01977,-0.02161 0.0221,-0.0221 0.17386,-0.03558 0.34595,-0.0442 0.53033,-0.0442 0.09219,0 0.17538,-0.0091 0.26517,1e-6 1.3467,0.13677 2.4086,1.2909 2.4086,2.6737 0,1.475 -1.1987,2.6737 -2.6737,2.6737 -0.73751,0 -1.3949,-0.29008 -1.8783,-0.7734 -0.06184,-0.06159 -0.14325,-0.13152 -0.19887,-0.19887 -0.16329,-0.19785 -0.29639,-0.42327 -0.39775,-0.66291 -0.13515,-0.31953 -0.19887,-0.66981 -0.19887,-1.0386 0,-0.36879 0.06372,-0.71904 0.19887,-1.0386 0.10136,-0.23964 0.23446,-0.46506 0.39775,-0.66291 z"
         id="path46"
         inkscape:connector-curvature="0"
         style="fill-opacity:0.00392163" />
      <path
         d="m 25.91,6.6193 c -0.27119,0.2981 -0.43186,0.63114 -0.59662,0.99437 -0.21968,0.48431 -0.4141,1.0511 -0.59662,1.7015 -0.36505,1.3008 -0.66133,2.944 -0.90598,4.7509 -0.4893,3.6137 -0.68691,7.881 -0.22097,11.358 0.05498,0.4177 0.33722,0.79576 0.7292,0.95018 1.8726,0.74066 4.2545,1.2159 6.9385,1.591 v 16.661 l 0.46404,0.19887 0.57452,0.26516 -0.0221,20.44 2.4528,2.6296 h 2.2539 l 2.4307,-2.6517 v -20.418 l 0.99437,-0.46404 0.0221,-10.319 -0.0221,-0.0221 -1e-6,-6.3198 c 2.7023,-0.37605 5.0998,-0.84625 6.9827,-1.591 0.39198,-0.15441 0.67422,-0.53248 0.7292,-0.95017 0.17456,-1.3026 0.25798,-2.7029 0.26517,-4.1543 0.01555,-3.1426 -0.29134,-6.4789 -0.7734,-9.1703 -0.24103,-1.3457 -0.52602,-2.5359 -0.83969,-3.4913 -0.31368,-0.95546 -0.51655,-1.6667 -1.3037,-2.276 -1.2279,-0.95045 -2.8222,-1.0295 -4.5962,-1.149 -1.774,-0.11958 -3.6582,-0.11048 -5.016,-0.11048 -1.3578,0 -3.242,-0.00909 -5.016,0.11048 -1.774,0.11958 -3.3904,0.2207 -4.6183,1.1711 -0.1211,0.093736 -0.21896,0.1658 -0.30936,0.26517 z m 7.8666,3.7123 c 0.05562,-0.06736 0.13703,-0.13728 0.19887,-0.19887 0.17976,-0.17976 0.37174,-0.34118 0.59662,-0.46404 0.22503,-0.12224 0.47099,-0.18951 0.7292,-0.24307 0.0023,-4.95e-4 0.01977,-0.02161 0.0221,-0.0221 0.17386,-0.03558 0.34595,-0.0442 0.53033,-0.0442 0.09219,0 0.17538,-0.0091 0.26517,10e-7 1.3467,0.13677 2.4086,1.2909 2.4086,2.6737 0,1.475 -1.1987,2.6737 -2.6737,2.6737 -0.73751,0 -1.3949,-0.29008 -1.8783,-0.7734 -0.06184,-0.06159 -0.14325,-0.13152 -0.19887,-0.19887 -0.16329,-0.19785 -0.29639,-0.42327 -0.39775,-0.66291 -0.13515,-0.31953 -0.19887,-0.66981 -0.19887,-1.0386 0,-0.36879 0.06372,-0.71904 0.19887,-1.0386 0.10136,-0.23964 0.23446,-0.46506 0.39775,-0.66291 z"
         id="path48"
         inkscape:connector-curvature="0"
         style="fill-opacity:0.04936302" />
      <g
         id="g114">
        <path
           d="m 45.617,26.327 c -0.27119,0.2981 -0.43186,0.63114 -0.59662,0.99437 -0.21968,0.48431 -0.4141,1.0511 -0.59662,1.7015 -0.36505,1.3008 -0.66133,2.944 -0.90598,4.7509 -0.4893,3.6137 -0.68691,7.881 -0.22097,11.358 0.05498,0.4177 0.33722,0.79576 0.7292,0.95018 1.8726,0.74066 4.2545,1.2159 6.9385,1.591 v 16.661 l 0.46404,0.19887 0.57452,0.26516 -0.0221,20.44 2.4528,2.6296 h 2.2539 c 0,0 2.4307,-2.6517 2.4307,-2.6517 v -20.418 l 0.99437,-0.46404 0.0221,-10.319 -0.0221,-0.0221 -1e-6,-6.3198 c 2.7023,-0.37605 5.0998,-0.84625 6.9827,-1.591 0.39198,-0.15441 0.67422,-0.53248 0.7292,-0.95017 0.17456,-1.3026 0.25798,-2.7029 0.26517,-4.1543 0.01555,-3.1426 -0.29134,-6.4789 -0.7734,-9.1703 -0.24103,-1.3457 -0.52602,-2.5359 -0.83969,-3.4913 -0.31368,-0.95546 -0.51655,-1.6667 -1.3037,-2.276 -1.2279,-0.95045 -2.8222,-1.0295 -4.5962,-1.149 -1.774,-0.11958 -3.6582,-0.11048 -5.016,-0.11048 -1.3578,0 -3.242,-0.0091 -5.016,0.11048 -1.774,0.11958 -3.3904,0.2207 -4.6183,1.1711 -0.1211,0.09374 -0.21896,0.1658 -0.30936,0.26517 L 45.617,26.327 m 7.8666,3.7123 c 0.05562,-0.06736 0.13703,-0.13728 0.19887,-0.19887 0.17976,-0.17976 0.37174,-0.34118 0.59662,-0.46404 0.22503,-0.12224 0.47099,-0.18951 0.7292,-0.24307 0.0023,-4.95e-4 0.01977,-0.02161 0.0221,-0.0221 0.17386,-0.03558 0.34595,-0.0442 0.53033,-0.0442 0.09219,0 0.17538,-0.0091 0.26517,1e-6 1.3467,0.13677 2.4086,1.2909 2.4086,2.6737 0,1.475 -1.1987,2.6737 -2.6737,2.6737 -0.73751,0 -1.3949,-0.29008 -1.8783,-0.7734 -0.06184,-0.06159 -0.14325,-0.13152 -0.19887,-0.19887 -0.16329,-0.19785 -0.29639,-0.42327 -0.39775,-0.66291 -0.13515,-0.31953 -0.19887,-0.66981 -0.19887,-1.0386 0,-0.36879 0.06372,-0.71904 0.19887,-1.0386 0.10136,-0.23964 0.23446,-0.46506 0.39775,-0.66291 l -2e-5,1.69e-4"
           id="path50"
           inkscape:connector-curvature="0"
           style="opacity:1;fill-opacity:0.00392163" />
        <path
           d="m 42.078,22.787 c -0.27119,0.2981 -0.43186,0.63114 -0.59662,0.99437 -0.21968,0.48431 -0.4141,1.0511 -0.59662,1.7015 -0.36505,1.3008 -0.66133,2.944 -0.90598,4.7509 -0.4893,3.6137 -0.68691,7.881 -0.22097,11.358 0.05498,0.4177 0.33722,0.79576 0.7292,0.95018 1.8726,0.74066 4.2545,1.2159 6.9385,1.591 v 16.661 l 0.46404,0.19887 0.57452,0.26516 -0.0221,20.44 2.4528,2.6296 h 2.2539 c 0,0 2.4307,-2.6517 2.4307,-2.6517 v -20.418 l 0.99437,-0.46404 0.0221,-10.319 -0.0221,-0.0221 -10e-7,-6.3198 c 2.7023,-0.37605 5.0998,-0.84625 6.9827,-1.591 0.39198,-0.15441 0.67422,-0.53248 0.7292,-0.95017 0.17456,-1.3026 0.25798,-2.7029 0.26517,-4.1543 0.01555,-3.1426 -0.29134,-6.4789 -0.7734,-9.1703 -0.24103,-1.3457 -0.52602,-2.5359 -0.83969,-3.4913 -0.31368,-0.95546 -0.51655,-1.6667 -1.3037,-2.276 -1.2279,-0.95045 -2.8222,-1.0295 -4.5962,-1.149 -1.774,-0.11958 -3.6582,-0.11048 -5.016,-0.11048 -1.3578,0 -3.242,-0.0091 -5.016,0.11048 -1.774,0.11958 -3.3904,0.2207 -4.6183,1.1711 -0.1211,0.09374 -0.21896,0.1658 -0.30936,0.26517 L 42.078,22.787 m 7.8666,3.7123 c 0.05562,-0.06736 0.13703,-0.13728 0.19887,-0.19887 0.17976,-0.17976 0.37174,-0.34118 0.59662,-0.46404 0.22503,-0.12224 0.47099,-0.18951 0.7292,-0.24307 0.0023,-4.95e-4 0.01977,-0.02161 0.0221,-0.0221 0.17386,-0.03558 0.34595,-0.0442 0.53033,-0.0442 0.09219,0 0.17538,-0.0091 0.26517,1e-6 1.3467,0.13677 2.4086,1.2909 2.4086,2.6737 0,1.475 -1.1987,2.6737 -2.6737,2.6737 -0.73751,0 -1.3949,-0.29008 -1.8783,-0.7734 -0.06184,-0.06159 -0.14325,-0.13152 -0.19887,-0.19887 -0.16329,-0.19785 -0.29639,-0.42327 -0.39775,-0.66291 -0.13515,-0.31953 -0.19887,-0.66981 -0.19887,-1.0386 0,-0.36879 0.06372,-0.71904 0.19887,-1.0386 0.10136,-0.23964 0.23446,-0.46506 0.39775,-0.66291 l -2e-5,1.69e-4"
           id="path52"
           inkscape:connector-curvature="0"
           style="opacity:1;fill-opacity:0.01208299" />
        <path
           d="m 40.611,21.321 c -0.27119,0.2981 -0.43186,0.63114 -0.59662,0.99437 -0.21968,0.48431 -0.4141,1.0511 -0.59662,1.7015 -0.36505,1.3008 -0.66133,2.944 -0.90598,4.7509 -0.4893,3.6137 -0.68691,7.881 -0.22097,11.358 0.05498,0.4177 0.33722,0.79576 0.7292,0.95018 1.8726,0.74066 4.2545,1.2159 6.9385,1.591 v 16.661 l 0.46404,0.19887 0.57452,0.26516 -0.0221,20.44 2.4528,2.6296 h 2.2539 c 0,0 2.4307,-2.6517 2.4307,-2.6517 v -20.418 l 0.99437,-0.46404 0.0221,-10.319 -0.0221,-0.0221 -1e-6,-6.3198 c 2.7023,-0.37605 5.0998,-0.84625 6.9827,-1.591 0.39198,-0.15441 0.67422,-0.53248 0.7292,-0.95017 0.17456,-1.3026 0.25798,-2.7029 0.26517,-4.1543 0.01555,-3.1426 -0.29134,-6.4789 -0.7734,-9.1703 -0.24103,-1.3457 -0.52602,-2.5359 -0.83969,-3.4913 -0.31368,-0.95546 -0.51655,-1.6667 -1.3037,-2.276 -1.2279,-0.95045 -2.8222,-1.0295 -4.5962,-1.149 -1.774,-0.11958 -3.6582,-0.11048 -5.016,-0.11048 -1.3578,0 -3.242,-0.0091 -5.016,0.11048 -1.774,0.11958 -3.3904,0.2207 -4.6183,1.1711 -0.1211,0.09374 -0.21896,0.1658 -0.30936,0.26517 L 40.611,21.321 m 7.8666,3.7123 c 0.05562,-0.06736 0.13703,-0.13728 0.19887,-0.19887 0.17976,-0.17976 0.37174,-0.34118 0.59662,-0.46404 0.22503,-0.12224 0.47099,-0.18951 0.7292,-0.24307 0.0023,-4.95e-4 0.01977,-0.02161 0.0221,-0.0221 0.17386,-0.03558 0.34595,-0.0442 0.53033,-0.0442 0.09219,0 0.17538,-0.0091 0.26517,1e-6 1.3467,0.13677 2.4086,1.2909 2.4086,2.6737 0,1.475 -1.1987,2.6737 -2.6737,2.6737 -0.73751,0 -1.3949,-0.29008 -1.8783,-0.7734 -0.06184,-0.06159 -0.14325,-0.13152 -0.19887,-0.19887 -0.16329,-0.19785 -0.29639,-0.42327 -0.39775,-0.66291 -0.13515,-0.31953 -0.19887,-0.66981 -0.19887,-1.0386 0,-0.36879 0.06372,-0.71904 0.19887,-1.0386 0.10136,-0.23964 0.23446,-0.46506 0.39775,-0.66291 l -2e-5,1.69e-4"
           id="path54"
           inkscape:connector-curvature="0"
           style="opacity:1;fill-opacity:0.01546397" />
        <path
           d="m 39.486,20.196 c -0.27119,0.2981 -0.43186,0.63114 -0.59662,0.99437 -0.21968,0.48431 -0.4141,1.0511 -0.59662,1.7015 -0.36505,1.3008 -0.66133,2.944 -0.90598,4.7509 -0.4893,3.6137 -0.68691,7.881 -0.22097,11.358 0.05498,0.4177 0.33722,0.79576 0.7292,0.95018 1.8726,0.74066 4.2545,1.2159 6.9385,1.591 v 16.661 l 0.46404,0.19887 0.57452,0.26516 -0.0221,20.44 2.4528,2.6296 h 2.2539 c 0,0 2.4307,-2.6517 2.4307,-2.6517 v -20.418 l 0.99437,-0.46404 0.0221,-10.319 -0.0221,-0.0221 -1e-6,-6.3198 c 2.7023,-0.37605 5.0998,-0.84625 6.9827,-1.591 0.39198,-0.15441 0.67422,-0.53248 0.7292,-0.95017 0.17456,-1.3026 0.25798,-2.7029 0.26517,-4.1543 0.01555,-3.1426 -0.29134,-6.4789 -0.7734,-9.1703 -0.24103,-1.3457 -0.52602,-2.5359 -0.83969,-3.4913 -0.31368,-0.95546 -0.51655,-1.6667 -1.3037,-2.276 -1.2279,-0.95045 -2.8222,-1.0295 -4.5962,-1.149 -1.774,-0.11958 -3.6582,-0.11048 -5.016,-0.11048 -1.3578,0 -3.242,-0.0091 -5.016,0.11048 -1.774,0.11958 -3.3904,0.2207 -4.6183,1.1711 -0.1211,0.09374 -0.21896,0.1658 -0.30936,0.26517 L 39.486,20.196 m 7.8666,3.7123 c 0.05562,-0.06736 0.13703,-0.13728 0.19887,-0.19887 0.17976,-0.17976 0.37174,-0.34118 0.59662,-0.46404 0.22503,-0.12224 0.47099,-0.18951 0.7292,-0.24307 0.0023,-4.95e-4 0.01977,-0.02161 0.0221,-0.0221 0.17386,-0.03558 0.34595,-0.0442 0.53033,-0.0442 0.09219,0 0.17538,-0.0091 0.26517,1e-6 1.3467,0.13677 2.4086,1.2909 2.4086,2.6737 0,1.475 -1.1987,2.6737 -2.6737,2.6737 -0.73751,0 -1.3949,-0.29008 -1.8783,-0.7734 -0.06184,-0.06159 -0.14325,-0.13152 -0.19887,-0.19887 -0.16329,-0.19785 -0.29639,-0.42327 -0.39775,-0.66291 -0.13515,-0.31953 -0.19887,-0.66981 -0.19887,-1.0386 0,-0.36879 0.06372,-0.71904 0.19887,-1.0386 0.10136,-0.23964 0.23446,-0.46506 0.39775,-0.66291 l -2e-5,1.69e-4"
           id="path56"
           inkscape:connector-curvature="0"
           style="opacity:1;fill-opacity:0.01805803" />
        <path
           d="m 38.538,19.247 c -0.27119,0.2981 -0.43186,0.63114 -0.59662,0.99437 -0.21968,0.48431 -0.4141,1.0511 -0.59662,1.7015 -0.36505,1.3008 -0.66133,2.944 -0.90598,4.7509 -0.4893,3.6137 -0.68691,7.881 -0.22097,11.358 0.05498,0.4177 0.33722,0.79576 0.7292,0.95018 1.8726,0.74066 4.2545,1.2159 6.9385,1.591 v 16.661 l 0.46404,0.19887 0.57452,0.26516 -0.0221,20.44 2.4528,2.6296 h 2.2539 c 0,0 2.4307,-2.6517 2.4307,-2.6517 v -20.418 l 0.99437,-0.46404 0.0221,-10.319 -0.0221,-0.0221 -1e-6,-6.3198 c 2.7023,-0.37605 5.0998,-0.84625 6.9827,-1.591 0.39198,-0.15441 0.67422,-0.53248 0.7292,-0.95017 0.17456,-1.3026 0.25798,-2.7029 0.26517,-4.1543 0.01555,-3.1426 -0.29134,-6.4789 -0.7734,-9.1703 -0.24103,-1.3457 -0.52602,-2.5359 -0.83969,-3.4913 -0.31368,-0.95546 -0.51655,-1.6667 -1.3037,-2.276 -1.2279,-0.95045 -2.8222,-1.0295 -4.5962,-1.149 -1.774,-0.11958 -3.6582,-0.11048 -5.016,-0.11048 -1.3578,0 -3.242,-0.0091 -5.016,0.11048 -1.774,0.11958 -3.3904,0.2207 -4.6183,1.1711 -0.1211,0.09374 -0.21896,0.1658 -0.30936,0.26517 L 38.538,19.247 m 7.8666,3.7123 c 0.05562,-0.06736 0.13703,-0.13728 0.19887,-0.19887 0.17976,-0.17976 0.37174,-0.34118 0.59662,-0.46404 0.22503,-0.12224 0.47099,-0.18951 0.7292,-0.24307 0.0023,-4.95e-4 0.01977,-0.02161 0.0221,-0.0221 0.17386,-0.03558 0.34595,-0.0442 0.53033,-0.0442 0.09219,0 0.17538,-0.0091 0.26517,10e-7 1.3467,0.13677 2.4086,1.2909 2.4086,2.6737 0,1.475 -1.1987,2.6737 -2.6737,2.6737 -0.73751,0 -1.3949,-0.29008 -1.8783,-0.7734 -0.06184,-0.06159 -0.14325,-0.13152 -0.19887,-0.19887 -0.16329,-0.19785 -0.29639,-0.42327 -0.39775,-0.66291 -0.13515,-0.31953 -0.19887,-0.66981 -0.19887,-1.0386 0,-0.36879 0.06372,-0.71904 0.19887,-1.0386 0.10136,-0.23964 0.23446,-0.46506 0.39775,-0.66291 l -2e-5,1.69e-4"
           id="path58"
           inkscape:connector-curvature="0"
           style="opacity:1;fill-opacity:0.020245" />
        <path
           d="m 37.702,18.412 c -0.27119,0.2981 -0.43186,0.63114 -0.59662,0.99437 -0.21968,0.48431 -0.4141,1.0511 -0.59662,1.7015 -0.36505,1.3008 -0.66133,2.944 -0.90598,4.7509 -0.4893,3.6137 -0.68691,7.881 -0.22097,11.358 0.05498,0.4177 0.33722,0.79576 0.7292,0.95018 1.8726,0.74066 4.2545,1.2159 6.9385,1.591 v 16.661 l 0.46404,0.19887 0.57452,0.26516 -0.0221,20.44 2.4528,2.6296 h 2.2539 c 0,0 2.4307,-2.6517 2.4307,-2.6517 v -20.418 l 0.99437,-0.46404 0.0221,-10.319 -0.0221,-0.0221 -1e-6,-6.3198 c 2.7023,-0.37605 5.0998,-0.84625 6.9827,-1.591 0.39198,-0.15441 0.67422,-0.53248 0.7292,-0.95017 0.17456,-1.3026 0.25798,-2.7029 0.26517,-4.1543 0.01555,-3.1426 -0.29134,-6.4789 -0.7734,-9.1703 -0.24103,-1.3457 -0.52602,-2.5359 -0.83969,-3.4913 -0.31368,-0.95546 -0.51655,-1.6667 -1.3037,-2.276 -1.2279,-0.95045 -2.8222,-1.0295 -4.5962,-1.149 -1.774,-0.11958 -3.6582,-0.11048 -5.016,-0.11048 -1.3578,0 -3.242,-0.0091 -5.016,0.11048 -1.774,0.11958 -3.3904,0.2207 -4.6183,1.1711 -0.1211,0.09374 -0.21896,0.1658 -0.30936,0.26517 L 37.702,18.412 m 7.8666,3.7123 c 0.05562,-0.06736 0.13703,-0.13728 0.19887,-0.19887 0.17976,-0.17976 0.37174,-0.34118 0.59662,-0.46404 0.22503,-0.12224 0.47099,-0.18951 0.7292,-0.24307 0.0023,-4.95e-4 0.01977,-0.02161 0.0221,-0.0221 0.17386,-0.03558 0.34595,-0.0442 0.53033,-0.0442 0.09219,0 0.17538,-0.0091 0.26517,1e-6 1.3467,0.13677 2.4086,1.2909 2.4086,2.6737 0,1.475 -1.1987,2.6737 -2.6737,2.6737 -0.73751,0 -1.3949,-0.29008 -1.8783,-0.7734 -0.06184,-0.06159 -0.14325,-0.13152 -0.19887,-0.19887 -0.16329,-0.19785 -0.29639,-0.42327 -0.39775,-0.66291 -0.13515,-0.31953 -0.19887,-0.66981 -0.19887,-1.0386 0,-0.36879 0.06372,-0.71904 0.19887,-1.0386 0.10136,-0.23964 0.23446,-0.46506 0.39775,-0.66291 l -2e-5,1.69e-4"
           id="path60"
           inkscape:connector-curvature="0"
           style="opacity:1;fill-opacity:0.02217102" />
        <path
           d="m 36.947,17.657 c -0.27119,0.2981 -0.43186,0.63114 -0.59662,0.99437 -0.21968,0.48431 -0.4141,1.0511 -0.59662,1.7015 -0.36505,1.3008 -0.66133,2.944 -0.90598,4.7509 -0.4893,3.6137 -0.68691,7.881 -0.22097,11.358 0.05498,0.4177 0.33722,0.79576 0.7292,0.95018 1.8726,0.74066 4.2545,1.2159 6.9385,1.591 v 16.661 l 0.46404,0.19887 0.57452,0.26516 -0.0221,20.44 2.4528,2.6296 h 2.2539 c 0,0 2.4307,-2.6517 2.4307,-2.6517 v -20.418 l 0.99437,-0.46404 0.0221,-10.319 -0.0221,-0.0221 -10e-7,-6.3198 c 2.7023,-0.37605 5.0998,-0.84625 6.9827,-1.591 0.39198,-0.15441 0.67422,-0.53248 0.7292,-0.95017 0.17456,-1.3026 0.25798,-2.7029 0.26517,-4.1543 0.01555,-3.1426 -0.29134,-6.4789 -0.7734,-9.1703 -0.24103,-1.3457 -0.52602,-2.5359 -0.83969,-3.4913 -0.31368,-0.95546 -0.51655,-1.6667 -1.3037,-2.276 -1.2279,-0.95045 -2.8222,-1.0295 -4.5962,-1.149 -1.774,-0.11958 -3.6582,-0.11048 -5.016,-0.11048 -1.3578,0 -3.242,-0.0091 -5.016,0.11048 -1.774,0.11958 -3.3904,0.2207 -4.6183,1.1711 -0.1211,0.09374 -0.21896,0.1658 -0.30936,0.26517 L 36.947,17.657 m 7.8666,3.7123 c 0.05562,-0.06736 0.13703,-0.13728 0.19887,-0.19887 0.17976,-0.17976 0.37174,-0.34118 0.59662,-0.46404 0.22503,-0.12224 0.47099,-0.18951 0.7292,-0.24307 0.0023,-4.95e-4 0.01977,-0.02161 0.0221,-0.0221 0.17386,-0.03558 0.34595,-0.0442 0.53033,-0.0442 0.09219,0 0.17538,-0.0091 0.26517,10e-7 1.3467,0.13677 2.4086,1.2909 2.4086,2.6737 0,1.475 -1.1987,2.6737 -2.6737,2.6737 -0.73751,0 -1.3949,-0.29008 -1.8783,-0.7734 -0.06184,-0.06159 -0.14325,-0.13152 -0.19887,-0.19887 -0.16329,-0.19785 -0.29639,-0.42327 -0.39775,-0.66291 -0.13515,-0.31953 -0.19887,-0.66981 -0.19887,-1.0386 0,-0.36879 0.06372,-0.71904 0.19887,-1.0386 0.10136,-0.23964 0.23446,-0.46506 0.39775,-0.66291 l -2e-5,1.69e-4"
           id="path62"
           inkscape:connector-curvature="0"
           style="opacity:1;fill-opacity:0.02391298" />
        <path
           d="m 36.252,16.962 c -0.27119,0.2981 -0.43186,0.63114 -0.59662,0.99437 -0.21968,0.48431 -0.4141,1.0511 -0.59662,1.7015 -0.36505,1.3008 -0.66133,2.944 -0.90598,4.7509 -0.4893,3.6137 -0.68691,7.881 -0.22097,11.358 0.05498,0.4177 0.33722,0.79576 0.7292,0.95018 1.8726,0.74066 4.2545,1.2159 6.9385,1.591 v 16.661 l 0.46404,0.19887 0.57452,0.26516 -0.0221,20.44 2.4528,2.6296 h 2.2539 c 0,0 2.4307,-2.6517 2.4307,-2.6517 v -20.418 l 0.99437,-0.46404 0.0221,-10.319 -0.0221,-0.0221 -10e-7,-6.3198 c 2.7023,-0.37605 5.0998,-0.84625 6.9827,-1.591 0.39198,-0.15441 0.67422,-0.53248 0.7292,-0.95017 0.17456,-1.3026 0.25798,-2.7029 0.26517,-4.1543 0.01555,-3.1426 -0.29134,-6.4789 -0.7734,-9.1703 -0.24103,-1.3457 -0.52602,-2.5359 -0.83969,-3.4913 -0.31368,-0.95546 -0.51655,-1.6667 -1.3037,-2.276 -1.2279,-0.95045 -2.8222,-1.0295 -4.5962,-1.149 -1.774,-0.11958 -3.6582,-0.11048 -5.016,-0.11048 -1.3578,0 -3.242,-0.0091 -5.016,0.11048 -1.774,0.11958 -3.3904,0.2207 -4.6183,1.1711 -0.1211,0.09374 -0.21896,0.1658 -0.30936,0.26517 L 36.252,16.962 m 7.8666,3.7123 c 0.05562,-0.06736 0.13703,-0.13728 0.19887,-0.19887 0.17976,-0.17976 0.37174,-0.34118 0.59662,-0.46404 0.22503,-0.12224 0.47099,-0.18951 0.7292,-0.24307 0.0023,-4.95e-4 0.01977,-0.02161 0.0221,-0.0221 0.17386,-0.03558 0.34595,-0.0442 0.53033,-0.0442 0.09219,0 0.17538,-0.0091 0.26517,10e-7 1.3467,0.13677 2.4086,1.2909 2.4086,2.6737 0,1.475 -1.1987,2.6737 -2.6737,2.6737 -0.73751,0 -1.3949,-0.29008 -1.8783,-0.7734 -0.06184,-0.06159 -0.14325,-0.13152 -0.19887,-0.19887 -0.16329,-0.19785 -0.29639,-0.42327 -0.39775,-0.66291 -0.13515,-0.31953 -0.19887,-0.66981 -0.19887,-1.0386 0,-0.36879 0.06372,-0.71904 0.19887,-1.0386 0.10136,-0.23964 0.23446,-0.46506 0.39775,-0.66291 l -2e-5,1.69e-4"
           id="path64"
           inkscape:connector-curvature="0"
           style="opacity:1;fill-opacity:0.02551503" />
        <path
           d="m 35.606,16.315 c -0.27119,0.2981 -0.43186,0.63114 -0.59662,0.99437 -0.21968,0.48431 -0.4141,1.0511 -0.59662,1.7015 -0.36505,1.3008 -0.66133,2.944 -0.90598,4.7509 -0.4893,3.6137 -0.68691,7.881 -0.22097,11.358 0.05498,0.4177 0.33722,0.79576 0.7292,0.95018 1.8726,0.74066 4.2545,1.2159 6.9385,1.591 v 16.661 l 0.46404,0.19887 0.57452,0.26516 -0.0221,20.44 2.4528,2.6296 h 2.2539 c 0,0 2.4307,-2.6517 2.4307,-2.6517 v -20.418 l 0.99437,-0.46404 0.0221,-10.319 -0.0221,-0.0221 -10e-7,-6.3198 c 2.7023,-0.37605 5.0998,-0.84625 6.9827,-1.591 0.39198,-0.15441 0.67422,-0.53248 0.7292,-0.95017 0.17456,-1.3026 0.25798,-2.7029 0.26517,-4.1543 0.01555,-3.1426 -0.29134,-6.4789 -0.7734,-9.1703 -0.24103,-1.3457 -0.52602,-2.5359 -0.83969,-3.4913 -0.31368,-0.95546 -0.51655,-1.6667 -1.3037,-2.276 -1.2279,-0.95045 -2.8222,-1.0295 -4.5962,-1.149 -1.774,-0.11958 -3.6582,-0.11048 -5.016,-0.11048 -1.3578,0 -3.242,-0.0091 -5.016,0.11048 -1.774,0.11958 -3.3904,0.2207 -4.6183,1.1711 -0.1211,0.09374 -0.21896,0.1658 -0.30936,0.26517 L 35.606,16.315 m 7.8666,3.7123 c 0.05562,-0.06736 0.13703,-0.13728 0.19887,-0.19887 0.17976,-0.17976 0.37174,-0.34118 0.59662,-0.46404 0.22503,-0.12224 0.47099,-0.18951 0.7292,-0.24307 0.0023,-4.95e-4 0.01977,-0.02161 0.0221,-0.0221 0.17386,-0.03558 0.34595,-0.0442 0.53033,-0.0442 0.09219,0 0.17538,-0.0091 0.26517,1e-6 1.3467,0.13677 2.4086,1.2909 2.4086,2.6737 0,1.475 -1.1987,2.6737 -2.6737,2.6737 -0.73751,0 -1.3949,-0.29008 -1.8783,-0.7734 -0.06184,-0.06159 -0.14325,-0.13152 -0.19887,-0.19887 -0.16329,-0.19785 -0.29639,-0.42327 -0.39775,-0.66291 -0.13515,-0.31953 -0.19887,-0.66981 -0.19887,-1.0386 0,-0.36879 0.06372,-0.71904 0.19887,-1.0386 0.10136,-0.23964 0.23446,-0.46506 0.39775,-0.66291 l -2e-5,1.69e-4"
           id="path66"
           inkscape:connector-curvature="0"
           style="opacity:1;fill-opacity:0.02700602" />
        <path
           d="m 34.998,15.708 c -0.27119,0.2981 -0.43186,0.63114 -0.59662,0.99437 -0.21968,0.48431 -0.4141,1.0511 -0.59662,1.7015 -0.36505,1.3008 -0.66133,2.944 -0.90598,4.7509 -0.4893,3.6137 -0.68691,7.881 -0.22097,11.358 0.05498,0.4177 0.33722,0.79576 0.7292,0.95018 1.8726,0.74066 4.2545,1.2159 6.9385,1.591 v 16.661 l 0.46404,0.19887 0.57452,0.26516 -0.0221,20.44 2.4528,2.6296 h 2.2539 c 0,0 2.4307,-2.6517 2.4307,-2.6517 v -20.418 l 0.99437,-0.46404 0.0221,-10.319 -0.0221,-0.0221 -1e-6,-6.3198 c 2.7023,-0.37605 5.0998,-0.84625 6.9827,-1.591 0.39198,-0.15441 0.67422,-0.53248 0.7292,-0.95017 0.17456,-1.3026 0.25798,-2.7029 0.26517,-4.1543 0.01555,-3.1426 -0.29134,-6.4789 -0.7734,-9.1703 -0.24103,-1.3457 -0.52602,-2.5359 -0.83969,-3.4913 -0.31368,-0.95546 -0.51655,-1.6667 -1.3037,-2.276 -1.2279,-0.95045 -2.8222,-1.0295 -4.5962,-1.149 -1.774,-0.11958 -3.6582,-0.11048 -5.016,-0.11048 -1.3578,0 -3.242,-0.0091 -5.016,0.11048 -1.774,0.11958 -3.3904,0.2207 -4.6183,1.1711 -0.1211,0.09374 -0.21896,0.1658 -0.30936,0.26517 L 34.998,15.708 m 7.8666,3.7123 c 0.05562,-0.06736 0.13703,-0.13728 0.19887,-0.19887 0.17976,-0.17976 0.37174,-0.34118 0.59662,-0.46404 0.22503,-0.12224 0.47099,-0.18951 0.7292,-0.24307 0.0023,-4.95e-4 0.01977,-0.02161 0.0221,-0.0221 0.17386,-0.03558 0.34595,-0.0442 0.53033,-0.0442 0.09219,0 0.17538,-0.0091 0.26517,1e-6 1.3467,0.13677 2.4086,1.2909 2.4086,2.6737 0,1.475 -1.1987,2.6737 -2.6737,2.6737 -0.73751,0 -1.3949,-0.29008 -1.8783,-0.7734 -0.06184,-0.06159 -0.14325,-0.13152 -0.19887,-0.19887 -0.16329,-0.19785 -0.29639,-0.42327 -0.39775,-0.66291 -0.13515,-0.31953 -0.19887,-0.66981 -0.19887,-1.0386 0,-0.36879 0.06372,-0.71904 0.19887,-1.0386 0.10136,-0.23964 0.23446,-0.46506 0.39775,-0.66291 l -2e-5,1.69e-4"
           id="path68"
           inkscape:connector-curvature="0"
           style="opacity:1;fill-opacity:0.028406" />
        <path
           d="m 34.424,15.134 c -0.27119,0.2981 -0.43186,0.63114 -0.59662,0.99437 -0.21968,0.48431 -0.4141,1.0511 -0.59662,1.7015 -0.36505,1.3008 -0.66133,2.944 -0.90598,4.7509 -0.4893,3.6137 -0.68691,7.881 -0.22097,11.358 0.05498,0.4177 0.33722,0.79576 0.7292,0.95018 1.8726,0.74066 4.2545,1.2159 6.9385,1.591 v 16.661 l 0.46404,0.19887 0.57452,0.26516 -0.0221,20.44 2.4528,2.6296 h 2.2539 c 0,0 2.4307,-2.6517 2.4307,-2.6517 v -20.418 l 0.99437,-0.46404 0.0221,-10.319 -0.0221,-0.0221 -10e-7,-6.3198 c 2.7023,-0.37605 5.0998,-0.84625 6.9827,-1.591 0.39198,-0.15441 0.67422,-0.53248 0.7292,-0.95017 0.17456,-1.3026 0.25798,-2.7029 0.26517,-4.1543 0.01555,-3.1426 -0.29134,-6.4789 -0.7734,-9.1703 -0.24103,-1.3457 -0.52602,-2.5359 -0.83969,-3.4913 -0.31368,-0.95546 -0.51655,-1.6667 -1.3037,-2.276 -1.2279,-0.95045 -2.8222,-1.0295 -4.5962,-1.149 -1.774,-0.11958 -3.6582,-0.11048 -5.016,-0.11048 -1.3578,0 -3.242,-0.0091 -5.016,0.11048 -1.774,0.11958 -3.3904,0.2207 -4.6183,1.1711 -0.1211,0.09374 -0.21896,0.1658 -0.30936,0.26517 L 34.424,15.134 m 7.8666,3.7123 c 0.05562,-0.06736 0.13703,-0.13728 0.19887,-0.19887 0.17976,-0.17976 0.37174,-0.34118 0.59662,-0.46404 0.22503,-0.12224 0.47099,-0.18951 0.7292,-0.24307 0.0023,-4.95e-4 0.01977,-0.02161 0.0221,-0.0221 0.17386,-0.03558 0.34595,-0.0442 0.53033,-0.0442 0.09219,0 0.17538,-0.0091 0.26517,10e-7 1.3467,0.13677 2.4086,1.2909 2.4086,2.6737 0,1.475 -1.1987,2.6737 -2.6737,2.6737 -0.73751,0 -1.3949,-0.29008 -1.8783,-0.7734 -0.06184,-0.06159 -0.14325,-0.13152 -0.19887,-0.19887 -0.16329,-0.19785 -0.29639,-0.42327 -0.39775,-0.66291 -0.13515,-0.31953 -0.19887,-0.66981 -0.19887,-1.0386 0,-0.36879 0.06372,-0.71904 0.19887,-1.0386 0.10136,-0.23964 0.23446,-0.46506 0.39775,-0.66291 l -2e-5,1.69e-4"
           id="path70"
           inkscape:connector-curvature="0"
           style="opacity:1;fill-opacity:0.029731" />
        <path
           d="m 33.878,14.587 c -0.27119,0.2981 -0.43186,0.63114 -0.59662,0.99437 -0.21968,0.48431 -0.4141,1.0511 -0.59662,1.7015 -0.36505,1.3008 -0.66133,2.944 -0.90598,4.7509 -0.4893,3.6137 -0.68691,7.881 -0.22097,11.358 0.05498,0.4177 0.33722,0.79576 0.7292,0.95018 1.8726,0.74066 4.2545,1.2159 6.9385,1.591 v 16.661 l 0.46404,0.19887 0.57452,0.26516 -0.0221,20.44 2.4528,2.6296 h 2.2539 c 0,0 2.4307,-2.6517 2.4307,-2.6517 v -20.418 l 0.99437,-0.46404 0.0221,-10.319 -0.0221,-0.0221 -10e-7,-6.3198 c 2.7023,-0.37605 5.0998,-0.84625 6.9827,-1.591 0.39198,-0.15441 0.67422,-0.53248 0.7292,-0.95017 0.17456,-1.3026 0.25798,-2.7029 0.26517,-4.1543 0.01555,-3.1426 -0.29134,-6.4789 -0.7734,-9.1703 -0.24103,-1.3457 -0.52602,-2.5359 -0.83969,-3.4913 -0.31368,-0.95546 -0.51655,-1.6667 -1.3037,-2.276 -1.2279,-0.95045 -2.8222,-1.0295 -4.5962,-1.149 -1.774,-0.11958 -3.6582,-0.11048 -5.016,-0.11048 -1.3578,0 -3.242,-0.0091 -5.016,0.11048 -1.774,0.11958 -3.3904,0.2207 -4.6183,1.1711 -0.1211,0.09374 -0.21896,0.1658 -0.30936,0.26517 L 33.878,14.587 m 7.8666,3.7123 c 0.05562,-0.06736 0.13703,-0.13728 0.19887,-0.19887 0.17976,-0.17976 0.37174,-0.34118 0.59662,-0.46404 0.22503,-0.12224 0.47099,-0.18951 0.7292,-0.24307 0.0023,-4.95e-4 0.01977,-0.02161 0.0221,-0.0221 0.17386,-0.03558 0.34595,-0.0442 0.53033,-0.0442 0.09219,0 0.17538,-0.0091 0.26517,10e-7 1.3467,0.13677 2.4086,1.2909 2.4086,2.6737 0,1.475 -1.1987,2.6737 -2.6737,2.6737 -0.73751,0 -1.3949,-0.29008 -1.8783,-0.7734 -0.06184,-0.06159 -0.14325,-0.13152 -0.19887,-0.19887 -0.16329,-0.19785 -0.29639,-0.42327 -0.39775,-0.66291 -0.13515,-0.31953 -0.19887,-0.66981 -0.19887,-1.0386 0,-0.36879 0.06372,-0.71904 0.19887,-1.0386 0.10136,-0.23964 0.23446,-0.46506 0.39775,-0.66291 l -2e-5,1.69e-4"
           id="path72"
           inkscape:connector-curvature="0"
           style="opacity:1;fill-opacity:0.03099" />
        <path
           d="m 33.356,14.065 c -0.27119,0.2981 -0.43186,0.63114 -0.59662,0.99437 -0.21968,0.48431 -0.4141,1.0511 -0.59662,1.7015 -0.36505,1.3008 -0.66133,2.944 -0.90598,4.7509 -0.4893,3.6137 -0.68691,7.881 -0.22097,11.358 0.05498,0.4177 0.33722,0.79576 0.7292,0.95018 1.8726,0.74066 4.2545,1.2159 6.9385,1.591 v 16.661 l 0.46404,0.19887 0.57452,0.26516 -0.0221,20.44 2.4528,2.6296 h 2.2539 c 0,0 2.4307,-2.6517 2.4307,-2.6517 v -20.418 l 0.99437,-0.46404 0.0221,-10.319 -0.0221,-0.0221 -10e-7,-6.3198 c 2.7023,-0.37605 5.0998,-0.84625 6.9827,-1.591 0.39198,-0.15441 0.67422,-0.53248 0.7292,-0.95017 0.17456,-1.3026 0.25798,-2.7029 0.26517,-4.1543 0.01555,-3.1426 -0.29134,-6.4789 -0.7734,-9.1703 -0.24103,-1.3457 -0.52602,-2.5359 -0.83969,-3.4913 -0.31368,-0.95546 -0.51655,-1.6667 -1.3037,-2.276 -1.2279,-0.95045 -2.8222,-1.0295 -4.5962,-1.149 -1.774,-0.11958 -3.6582,-0.11048 -5.016,-0.11048 -1.3578,0 -3.242,-0.0091 -5.016,0.11048 -1.774,0.11958 -3.3904,0.2207 -4.6183,1.1711 -0.1211,0.09374 -0.21896,0.1658 -0.30936,0.26517 L 33.356,14.065 m 7.8666,3.7123 c 0.05562,-0.06736 0.13703,-0.13728 0.19887,-0.19887 0.17976,-0.17976 0.37174,-0.34118 0.59662,-0.46404 0.22503,-0.12224 0.47099,-0.18951 0.7292,-0.24307 0.0023,-4.95e-4 0.01977,-0.02161 0.0221,-0.0221 0.17386,-0.03558 0.34595,-0.0442 0.53033,-0.0442 0.09219,0 0.17538,-0.0091 0.26517,1e-6 1.3467,0.13677 2.4086,1.2909 2.4086,2.6737 0,1.475 -1.1987,2.6737 -2.6737,2.6737 -0.73751,0 -1.3949,-0.29008 -1.8783,-0.7734 -0.06184,-0.06159 -0.14325,-0.13152 -0.19887,-0.19887 -0.16329,-0.19785 -0.29639,-0.42327 -0.39775,-0.66291 -0.13515,-0.31953 -0.19887,-0.66981 -0.19887,-1.0386 0,-0.36879 0.06372,-0.71904 0.19887,-1.0386 0.10136,-0.23964 0.23446,-0.46506 0.39775,-0.66291 l -2e-5,1.69e-4"
           id="path74"
           inkscape:connector-curvature="0"
           style="opacity:1;fill-opacity:0.03219401" />
        <path
           d="m 32.855,13.565 c -0.27119,0.2981 -0.43186,0.63114 -0.59662,0.99437 -0.21968,0.48431 -0.4141,1.0511 -0.59662,1.7015 -0.36505,1.3008 -0.66133,2.944 -0.90598,4.7509 -0.4893,3.6137 -0.68691,7.881 -0.22097,11.358 0.05498,0.4177 0.33722,0.79576 0.7292,0.95018 1.8726,0.74066 4.2545,1.2159 6.9385,1.591 v 16.661 l 0.46404,0.19887 0.57452,0.26516 -0.0221,20.44 2.4528,2.6296 h 2.2539 c 0,0 2.4307,-2.6517 2.4307,-2.6517 v -20.418 l 0.99437,-0.46404 0.0221,-10.319 -0.0221,-0.0221 -1e-6,-6.3198 c 2.7023,-0.37605 5.0998,-0.84625 6.9827,-1.591 0.39198,-0.15441 0.67422,-0.53248 0.7292,-0.95017 0.17456,-1.3026 0.25798,-2.7029 0.26517,-4.1543 0.01555,-3.1426 -0.29134,-6.4789 -0.7734,-9.1703 -0.24103,-1.3457 -0.52602,-2.5359 -0.83969,-3.4913 -0.31368,-0.95546 -0.51655,-1.6667 -1.3037,-2.276 -1.2279,-0.95045 -2.8222,-1.0295 -4.5962,-1.149 -1.774,-0.11958 -3.6582,-0.11048 -5.016,-0.11048 -1.3578,0 -3.242,-0.0091 -5.016,0.11048 -1.774,0.11958 -3.3904,0.2207 -4.6183,1.1711 -0.1211,0.09374 -0.21896,0.1658 -0.30936,0.26517 L 32.855,13.565 m 7.8666,3.7123 c 0.05562,-0.06736 0.13703,-0.13728 0.19887,-0.19887 0.17976,-0.17976 0.37174,-0.34118 0.59662,-0.46404 0.22503,-0.12224 0.47099,-0.18951 0.7292,-0.24307 0.0023,-4.95e-4 0.01977,-0.02161 0.0221,-0.0221 0.17386,-0.03558 0.34595,-0.0442 0.53033,-0.0442 0.09219,0 0.17538,-0.0091 0.26517,1e-6 1.3467,0.13677 2.4086,1.2909 2.4086,2.6737 0,1.475 -1.1987,2.6737 -2.6737,2.6737 -0.73751,0 -1.3949,-0.29008 -1.8783,-0.7734 -0.06184,-0.06159 -0.14325,-0.13152 -0.19887,-0.19887 -0.16329,-0.19785 -0.29639,-0.42327 -0.39775,-0.66291 -0.13515,-0.31953 -0.19887,-0.66981 -0.19887,-1.0386 0,-0.36879 0.06372,-0.71904 0.19887,-1.0386 0.10136,-0.23964 0.23446,-0.46506 0.39775,-0.66291 l -2e-5,1.69e-4"
           id="path76"
           inkscape:connector-curvature="0"
           style="opacity:1;fill-opacity:0.03334799" />
        <path
           d="m 32.373,13.083 c -0.27119,0.2981 -0.43186,0.63114 -0.59662,0.99437 -0.21968,0.48431 -0.4141,1.0511 -0.59662,1.7015 -0.36505,1.3008 -0.66133,2.944 -0.90598,4.7509 -0.4893,3.6137 -0.68691,7.881 -0.22097,11.358 0.05498,0.4177 0.33722,0.79576 0.7292,0.95018 1.8726,0.74066 4.2545,1.2159 6.9385,1.591 v 16.661 l 0.46404,0.19887 0.57452,0.26516 -0.0221,20.44 2.4528,2.6296 h 2.2539 c 0,0 2.4307,-2.6517 2.4307,-2.6517 v -20.418 l 0.99437,-0.46404 0.0221,-10.319 -0.0221,-0.0221 -1e-6,-6.3198 c 2.7023,-0.37605 5.0998,-0.84625 6.9827,-1.591 0.39198,-0.15441 0.67422,-0.53248 0.7292,-0.95017 0.17456,-1.3026 0.25798,-2.7029 0.26517,-4.1543 0.01555,-3.1426 -0.29134,-6.4789 -0.7734,-9.1703 -0.24103,-1.3457 -0.52602,-2.5359 -0.83969,-3.4913 -0.31368,-0.95546 -0.51655,-1.6667 -1.3037,-2.276 -1.2279,-0.95045 -2.8222,-1.0295 -4.5962,-1.149 -1.774,-0.11958 -3.6582,-0.11048 -5.016,-0.11048 -1.3578,0 -3.242,-0.0091 -5.016,0.11048 -1.774,0.11958 -3.3904,0.2207 -4.6183,1.1711 -0.1211,0.09374 -0.21896,0.1658 -0.30936,0.26517 L 32.373,13.083 m 7.8666,3.7123 c 0.05562,-0.06736 0.13703,-0.13728 0.19887,-0.19887 0.17976,-0.17976 0.37174,-0.34118 0.59662,-0.46404 0.22503,-0.12224 0.47099,-0.18951 0.7292,-0.24307 0.0023,-4.95e-4 0.01977,-0.02161 0.0221,-0.0221 0.17386,-0.03558 0.34595,-0.0442 0.53033,-0.0442 0.09219,0 0.17538,-0.0091 0.26517,1e-6 1.3467,0.13677 2.4086,1.2909 2.4086,2.6737 0,1.475 -1.1987,2.6737 -2.6737,2.6737 -0.73751,0 -1.3949,-0.29008 -1.8783,-0.7734 -0.06184,-0.06159 -0.14325,-0.13152 -0.19887,-0.19887 -0.16329,-0.19785 -0.29639,-0.42327 -0.39775,-0.66291 -0.13515,-0.31953 -0.19887,-0.66981 -0.19887,-1.0386 0,-0.36879 0.06372,-0.71904 0.19887,-1.0386 0.10136,-0.23964 0.23446,-0.46506 0.39775,-0.66291 l -2e-5,1.69e-4"
           id="path78"
           inkscape:connector-curvature="0"
           style="opacity:1;fill-opacity:0.03445901" />
        <path
           d="m 31.909,12.618 c -0.27119,0.2981 -0.43186,0.63114 -0.59662,0.99437 -0.21968,0.48431 -0.4141,1.0511 -0.59662,1.7015 -0.36505,1.3008 -0.66133,2.944 -0.90598,4.7509 -0.4893,3.6137 -0.68691,7.881 -0.22097,11.358 0.05498,0.4177 0.33722,0.79576 0.7292,0.95018 1.8726,0.74066 4.2545,1.2159 6.9385,1.591 v 16.661 l 0.46404,0.19887 0.57452,0.26516 -0.0221,20.44 2.4528,2.6296 h 2.2539 c 0,0 2.4307,-2.6517 2.4307,-2.6517 v -20.418 l 0.99437,-0.46404 0.0221,-10.319 -0.0221,-0.0221 -10e-7,-6.3198 c 2.7023,-0.37605 5.0998,-0.84625 6.9827,-1.591 0.39198,-0.15441 0.67422,-0.53248 0.7292,-0.95017 0.17456,-1.3026 0.25798,-2.7029 0.26517,-4.1543 0.01555,-3.1426 -0.29134,-6.4789 -0.7734,-9.1703 -0.24103,-1.3457 -0.52602,-2.5359 -0.83969,-3.4913 -0.31368,-0.95546 -0.51655,-1.6667 -1.3037,-2.276 -1.2279,-0.95045 -2.8222,-1.0295 -4.5962,-1.149 -1.774,-0.11958 -3.6582,-0.11048 -5.016,-0.11048 -1.3578,0 -3.242,-0.0091 -5.016,0.11048 -1.774,0.11958 -3.3904,0.2207 -4.6183,1.1711 -0.1211,0.09374 -0.21896,0.1658 -0.30936,0.26517 L 31.909,12.618 m 7.8666,3.7123 c 0.05562,-0.06736 0.13703,-0.13728 0.19887,-0.19887 0.17976,-0.17976 0.37174,-0.34118 0.59662,-0.46404 0.22503,-0.12224 0.47099,-0.18951 0.7292,-0.24307 0.0023,-4.95e-4 0.01977,-0.02161 0.0221,-0.0221 0.17386,-0.03558 0.34595,-0.0442 0.53033,-0.0442 0.09219,0 0.17538,-0.0091 0.26517,1e-6 1.3467,0.13677 2.4086,1.2909 2.4086,2.6737 0,1.475 -1.1987,2.6737 -2.6737,2.6737 -0.73751,0 -1.3949,-0.29008 -1.8783,-0.7734 -0.06184,-0.06159 -0.14325,-0.13152 -0.19887,-0.19887 -0.16329,-0.19785 -0.29639,-0.42327 -0.39775,-0.66291 -0.13515,-0.31953 -0.19887,-0.66981 -0.19887,-1.0386 0,-0.36879 0.06372,-0.71904 0.19887,-1.0386 0.10136,-0.23964 0.23446,-0.46506 0.39775,-0.66291 l -2e-5,1.69e-4"
           id="path80"
           inkscape:connector-curvature="0"
           style="opacity:1;fill-opacity:0.03553102" />
        <path
           d="m 31.459,12.168 c -0.27119,0.2981 -0.43186,0.63114 -0.59662,0.99437 -0.21968,0.48431 -0.4141,1.0511 -0.59662,1.7015 -0.36505,1.3008 -0.66133,2.944 -0.90598,4.7509 -0.4893,3.6137 -0.68691,7.881 -0.22097,11.358 0.05498,0.4177 0.33722,0.79576 0.7292,0.95018 1.8726,0.74066 4.2545,1.2159 6.9385,1.591 v 16.661 l 0.46404,0.19887 0.57452,0.26516 -0.0221,20.44 2.4528,2.6296 h 2.2539 c 0,0 2.4307,-2.6517 2.4307,-2.6517 v -20.418 l 0.99437,-0.46404 0.0221,-10.319 -0.0221,-0.0221 -1e-6,-6.3198 c 2.7023,-0.37605 5.0998,-0.84625 6.9827,-1.591 0.39198,-0.15441 0.67422,-0.53248 0.7292,-0.95017 0.17456,-1.3026 0.25798,-2.7029 0.26517,-4.1543 0.01555,-3.1426 -0.29134,-6.4789 -0.7734,-9.1703 -0.24103,-1.3457 -0.52602,-2.5359 -0.83969,-3.4913 -0.31368,-0.95546 -0.51655,-1.6667 -1.3037,-2.276 -1.2279,-0.95045 -2.8222,-1.0295 -4.5962,-1.149 -1.774,-0.11958 -3.6582,-0.11048 -5.016,-0.11048 -1.3578,0 -3.242,-0.0091 -5.016,0.11048 -1.774,0.11958 -3.3904,0.2207 -4.6183,1.1711 -0.1211,0.09374 -0.21896,0.1658 -0.30936,0.26517 L 31.459,12.168 m 7.8666,3.7123 c 0.05562,-0.06736 0.13703,-0.13728 0.19887,-0.19887 0.17976,-0.17976 0.37174,-0.34118 0.59662,-0.46404 0.22503,-0.12224 0.47099,-0.18951 0.7292,-0.24307 0.0023,-4.95e-4 0.01977,-0.02161 0.0221,-0.0221 0.17386,-0.03558 0.34595,-0.0442 0.53033,-0.0442 0.09219,0 0.17538,-0.0091 0.26517,10e-7 1.3467,0.13677 2.4086,1.2909 2.4086,2.6737 0,1.475 -1.1987,2.6737 -2.6737,2.6737 -0.73751,0 -1.3949,-0.29008 -1.8783,-0.7734 -0.06184,-0.06159 -0.14325,-0.13152 -0.19887,-0.19887 -0.16329,-0.19785 -0.29639,-0.42327 -0.39775,-0.66291 -0.13515,-0.31953 -0.19887,-0.66981 -0.19887,-1.0386 0,-0.36879 0.06372,-0.71904 0.19887,-1.0386 0.10136,-0.23964 0.23446,-0.46506 0.39775,-0.66291 l -2e-5,1.69e-4"
           id="path82"
           inkscape:connector-curvature="0"
           style="opacity:1;fill-opacity:0.03656802" />
        <path
           d="m 31.023,11.733 c -0.27119,0.2981 -0.43186,0.63114 -0.59662,0.99437 -0.21968,0.48431 -0.4141,1.0511 -0.59662,1.7015 -0.36505,1.3008 -0.66133,2.944 -0.90598,4.7509 -0.4893,3.6137 -0.68691,7.881 -0.22097,11.358 0.05498,0.4177 0.33722,0.79576 0.7292,0.95018 1.8726,0.74066 4.2545,1.2159 6.9385,1.591 v 16.661 l 0.46404,0.19887 0.57452,0.26516 -0.0221,20.44 2.4528,2.6296 h 2.2539 c 0,0 2.4307,-2.6517 2.4307,-2.6517 v -20.418 l 0.99437,-0.46404 0.0221,-10.319 -0.0221,-0.0221 -1e-6,-6.3198 c 2.7023,-0.37605 5.0998,-0.84625 6.9827,-1.591 0.39198,-0.15441 0.67422,-0.53248 0.7292,-0.95017 0.17456,-1.3026 0.25798,-2.7029 0.26517,-4.1543 0.01555,-3.1426 -0.29134,-6.4789 -0.7734,-9.1703 -0.24103,-1.3457 -0.52602,-2.5359 -0.83969,-3.4913 -0.31368,-0.95546 -0.51655,-1.6667 -1.3037,-2.276 -1.2279,-0.95045 -2.8222,-1.0295 -4.5962,-1.149 -1.774,-0.11958 -3.6582,-0.11048 -5.016,-0.11048 -1.3578,0 -3.242,-0.0091 -5.016,0.11048 -1.774,0.11958 -3.3904,0.2207 -4.6183,1.1711 -0.1211,0.09374 -0.21896,0.1658 -0.30936,0.26517 L 31.023,11.733 m 7.8666,3.7123 c 0.05562,-0.06736 0.13703,-0.13728 0.19887,-0.19887 0.17976,-0.17976 0.37174,-0.34118 0.59662,-0.46404 0.22503,-0.12224 0.47099,-0.18951 0.7292,-0.24307 0.0023,-4.95e-4 0.01977,-0.02161 0.0221,-0.0221 0.17386,-0.03558 0.34595,-0.0442 0.53033,-0.0442 0.09219,0 0.17538,-0.0091 0.26517,10e-7 1.3467,0.13677 2.4086,1.2909 2.4086,2.6737 0,1.475 -1.1987,2.6737 -2.6737,2.6737 -0.73751,0 -1.3949,-0.29008 -1.8783,-0.7734 -0.06184,-0.06159 -0.14325,-0.13152 -0.19887,-0.19887 -0.16329,-0.19785 -0.29639,-0.42327 -0.39775,-0.66291 -0.13515,-0.31953 -0.19887,-0.66981 -0.19887,-1.0386 0,-0.36879 0.06372,-0.71904 0.19887,-1.0386 0.10136,-0.23964 0.23446,-0.46506 0.39775,-0.66291 l -2e-5,1.69e-4"
           id="path84"
           inkscape:connector-curvature="0"
           style="opacity:1;fill-opacity:0.03757199" />
        <path
           d="m 30.6,11.31 c -0.27119,0.2981 -0.43186,0.63114 -0.59662,0.99437 -0.21968,0.48431 -0.4141,1.0511 -0.59662,1.7015 -0.36505,1.3008 -0.66133,2.944 -0.90598,4.7509 -0.4893,3.6137 -0.68691,7.881 -0.22097,11.358 0.05498,0.4177 0.33722,0.79576 0.7292,0.95018 1.8726,0.74066 4.2545,1.2159 6.9385,1.591 v 16.661 l 0.46404,0.19887 0.57452,0.26516 -0.0221,20.44 2.4528,2.6296 h 2.2539 c 0,0 2.4307,-2.6517 2.4307,-2.6517 v -20.418 l 0.99437,-0.46404 0.0221,-10.319 -0.0221,-0.0221 -10e-7,-6.3198 c 2.7023,-0.37605 5.0998,-0.84625 6.9827,-1.591 0.39198,-0.15441 0.67422,-0.53248 0.7292,-0.95017 0.17456,-1.3026 0.25798,-2.7029 0.26517,-4.1543 0.01555,-3.1426 -0.29134,-6.4789 -0.7734,-9.1703 -0.24103,-1.3457 -0.52602,-2.5359 -0.83969,-3.4913 -0.31368,-0.95546 -0.51655,-1.6667 -1.3037,-2.276 -1.2279,-0.95045 -2.8222,-1.0295 -4.5962,-1.149 -1.774,-0.11958 -3.6582,-0.11048 -5.016,-0.11048 -1.3578,0 -3.242,-0.00909 -5.016,0.11048 -1.774,0.11958 -3.3904,0.2207 -4.6183,1.1711 -0.1211,0.09374 -0.21896,0.1658 -0.30936,0.26517 L 30.6,11.31 m 7.8666,3.7123 c 0.05562,-0.06736 0.13703,-0.13728 0.19887,-0.19887 0.17976,-0.17976 0.37174,-0.34118 0.59662,-0.46404 0.22503,-0.12224 0.47099,-0.18951 0.7292,-0.24307 0.0023,-4.95e-4 0.01977,-0.02161 0.0221,-0.0221 0.17386,-0.03558 0.34595,-0.0442 0.53033,-0.0442 0.09219,0 0.17538,-0.0091 0.26517,10e-7 1.3467,0.13677 2.4086,1.2909 2.4086,2.6737 0,1.475 -1.1987,2.6737 -2.6737,2.6737 -0.73751,0 -1.3949,-0.29008 -1.8783,-0.7734 -0.06184,-0.06159 -0.14325,-0.13152 -0.19887,-0.19887 -0.16329,-0.19785 -0.29639,-0.42327 -0.39775,-0.66291 -0.13515,-0.31953 -0.19887,-0.66981 -0.19887,-1.0386 0,-0.36879 0.06372,-0.71904 0.19887,-1.0386 0.10136,-0.23964 0.23446,-0.46506 0.39775,-0.66291 l -2e-5,1.69e-4"
           id="path86"
           inkscape:connector-curvature="0"
           style="opacity:1;fill-opacity:0.03854801" />
        <path
           d="m 30.189,10.898 c -0.27119,0.2981 -0.43186,0.63114 -0.59662,0.99437 -0.21968,0.48431 -0.4141,1.0511 -0.59662,1.7015 -0.36505,1.3008 -0.66133,2.944 -0.90598,4.7509 -0.4893,3.6137 -0.68691,7.881 -0.22097,11.358 0.05498,0.4177 0.33722,0.79576 0.7292,0.95018 1.8726,0.74066 4.2545,1.2159 6.9385,1.591 v 16.661 l 0.46404,0.19887 0.57452,0.26516 -0.0221,20.44 2.4528,2.6296 h 2.2539 c 0,0 2.4307,-2.6517 2.4307,-2.6517 v -20.418 l 0.99437,-0.46404 0.0221,-10.319 -0.0221,-0.0221 -10e-7,-6.3198 c 2.7023,-0.37605 5.0998,-0.84625 6.9827,-1.591 0.39198,-0.15441 0.67422,-0.53248 0.7292,-0.95017 0.17456,-1.3026 0.25798,-2.7029 0.26517,-4.1543 0.01555,-3.1426 -0.29134,-6.4789 -0.7734,-9.1703 -0.24103,-1.3457 -0.52602,-2.5359 -0.83969,-3.4913 -0.31368,-0.95546 -0.51655,-1.6667 -1.3037,-2.276 -1.2279,-0.95045 -2.8222,-1.0295 -4.5962,-1.149 -1.774,-0.11958 -3.6582,-0.11048 -5.016,-0.11048 -1.3578,0 -3.242,-0.00909 -5.016,0.11048 -1.774,0.11958 -3.3904,0.2207 -4.6183,1.1711 -0.1211,0.09374 -0.21896,0.1658 -0.30936,0.26517 L 30.189,10.898 m 7.8666,3.7123 c 0.05562,-0.06736 0.13703,-0.13728 0.19887,-0.19887 0.17976,-0.17976 0.37174,-0.34118 0.59662,-0.46404 0.22503,-0.12224 0.47099,-0.18951 0.7292,-0.24307 0.0023,-4.95e-4 0.01977,-0.02161 0.0221,-0.0221 0.17386,-0.03558 0.34595,-0.0442 0.53033,-0.0442 0.09219,0 0.17538,-0.0091 0.26517,1e-6 1.3467,0.13677 2.4086,1.2909 2.4086,2.6737 0,1.475 -1.1987,2.6737 -2.6737,2.6737 -0.73751,0 -1.3949,-0.29008 -1.8783,-0.7734 -0.06184,-0.06159 -0.14325,-0.13152 -0.19887,-0.19887 -0.16329,-0.19785 -0.29639,-0.42327 -0.39775,-0.66291 -0.13515,-0.31953 -0.19887,-0.66981 -0.19887,-1.0386 0,-0.36879 0.06372,-0.71904 0.19887,-1.0386 0.10136,-0.23964 0.23446,-0.46506 0.39775,-0.66291 l -2e-5,1.69e-4"
           id="path88"
           inkscape:connector-curvature="0"
           style="opacity:1;fill-opacity:0.03949699" />
        <path
           d="m 29.788,10.497 c -0.27119,0.2981 -0.43186,0.63114 -0.59662,0.99437 -0.21968,0.48431 -0.4141,1.0511 -0.59662,1.7015 -0.36505,1.3008 -0.66133,2.944 -0.90598,4.7509 -0.4893,3.6137 -0.68691,7.881 -0.22097,11.358 0.05498,0.4177 0.33722,0.79576 0.7292,0.95018 1.8726,0.74066 4.2545,1.2159 6.9385,1.591 v 16.661 l 0.46404,0.19887 0.57452,0.26516 -0.0221,20.44 2.4528,2.6296 h 2.2539 c 0,0 2.4307,-2.6517 2.4307,-2.6517 v -20.418 l 0.99437,-0.46404 0.0221,-10.319 -0.0221,-0.0221 -1e-6,-6.3198 c 2.7023,-0.37605 5.0998,-0.84625 6.9827,-1.591 0.39198,-0.15441 0.67422,-0.53248 0.7292,-0.95017 0.17456,-1.3026 0.25798,-2.7029 0.26517,-4.1543 0.01555,-3.1426 -0.29134,-6.4789 -0.7734,-9.1703 -0.24103,-1.3457 -0.52602,-2.5359 -0.83969,-3.4913 -0.31368,-0.95546 -0.51655,-1.6667 -1.3037,-2.276 -1.2279,-0.95045 -2.8222,-1.0295 -4.5962,-1.149 -1.774,-0.11958 -3.6582,-0.11048 -5.016,-0.11048 -1.3578,0 -3.242,-0.00909 -5.016,0.11048 -1.774,0.11958 -3.3904,0.2207 -4.6183,1.1711 -0.1211,0.09374 -0.21896,0.1658 -0.30936,0.26517 L 29.788,10.497 m 7.8666,3.7123 c 0.05562,-0.06736 0.13703,-0.13728 0.19887,-0.19887 0.17976,-0.17976 0.37174,-0.34118 0.59662,-0.46404 0.22503,-0.12224 0.47099,-0.18951 0.7292,-0.24307 0.0023,-4.95e-4 0.01977,-0.02161 0.0221,-0.0221 0.17386,-0.03558 0.34595,-0.0442 0.53033,-0.0442 0.09219,0 0.17538,-0.0091 0.26517,1e-6 1.3467,0.13677 2.4086,1.2909 2.4086,2.6737 0,1.475 -1.1987,2.6737 -2.6737,2.6737 -0.73751,0 -1.3949,-0.29008 -1.8783,-0.7734 -0.06184,-0.06159 -0.14325,-0.13152 -0.19887,-0.19887 -0.16329,-0.19785 -0.29639,-0.42327 -0.39775,-0.66291 -0.13515,-0.31953 -0.19887,-0.66981 -0.19887,-1.0386 0,-0.36879 0.06372,-0.71904 0.19887,-1.0386 0.10136,-0.23964 0.23446,-0.46506 0.39775,-0.66291 l -2e-5,1.69e-4"
           id="path90"
           inkscape:connector-curvature="0"
           style="opacity:1;fill-opacity:0.04042101" />
        <path
           d="m 29.397,10.106 c -0.27119,0.2981 -0.43186,0.63114 -0.59662,0.99437 -0.21968,0.48431 -0.4141,1.0511 -0.59662,1.7015 -0.36505,1.3008 -0.66133,2.944 -0.90598,4.7509 -0.4893,3.6137 -0.68691,7.881 -0.22097,11.358 0.05498,0.4177 0.33722,0.79576 0.7292,0.95018 1.8726,0.74066 4.2545,1.2159 6.9385,1.591 v 16.661 l 0.46404,0.19887 0.57452,0.26516 -0.0221,20.44 2.4528,2.6296 h 2.2539 c 0,0 2.4307,-2.6517 2.4307,-2.6517 v -20.418 l 0.99437,-0.46404 0.0221,-10.319 -0.0221,-0.0221 -1e-6,-6.3198 c 2.7023,-0.37605 5.0998,-0.84625 6.9827,-1.591 0.39198,-0.15441 0.67422,-0.53248 0.7292,-0.95017 0.17456,-1.3026 0.25798,-2.7029 0.26517,-4.1543 0.01555,-3.1426 -0.29134,-6.4789 -0.7734,-9.1703 -0.24103,-1.3457 -0.52602,-2.5359 -0.83969,-3.4913 -0.31368,-0.95546 -0.51655,-1.6667 -1.3037,-2.276 -1.2279,-0.95045 -2.8222,-1.0295 -4.5962,-1.149 -1.774,-0.11958 -3.6582,-0.11048 -5.016,-0.11048 -1.3578,0 -3.242,-0.00909 -5.016,0.11048 -1.774,0.11958 -3.3904,0.2207 -4.6183,1.1711 -0.1211,0.093737 -0.21896,0.1658 -0.30936,0.26517 L 29.397,10.106 m 7.8666,3.7123 c 0.05562,-0.06736 0.13703,-0.13728 0.19887,-0.19887 0.17976,-0.17976 0.37174,-0.34118 0.59662,-0.46404 0.22503,-0.12224 0.47099,-0.18951 0.7292,-0.24307 0.0023,-4.95e-4 0.01977,-0.02161 0.0221,-0.0221 0.17386,-0.03558 0.34595,-0.0442 0.53033,-0.0442 0.09219,0 0.17538,-0.0091 0.26517,1e-6 1.3467,0.13677 2.4086,1.2909 2.4086,2.6737 0,1.475 -1.1987,2.6737 -2.6737,2.6737 -0.73751,0 -1.3949,-0.29008 -1.8783,-0.7734 -0.06184,-0.06159 -0.14325,-0.13152 -0.19887,-0.19887 -0.16329,-0.19785 -0.29639,-0.42327 -0.39775,-0.66291 -0.13515,-0.31953 -0.19887,-0.66981 -0.19887,-1.0386 0,-0.36879 0.06372,-0.71904 0.19887,-1.0386 0.10136,-0.23964 0.23446,-0.46506 0.39775,-0.66291 l -2e-5,1.69e-4"
           id="path92"
           inkscape:connector-curvature="0"
           style="opacity:1;fill-opacity:0.041322" />
        <path
           d="m 29.015,9.7247 c -0.27119,0.2981 -0.43186,0.63114 -0.59662,0.99437 -0.21968,0.48431 -0.4141,1.0511 -0.59662,1.7015 -0.36505,1.3008 -0.66133,2.944 -0.90598,4.7509 -0.4893,3.6137 -0.68691,7.881 -0.22097,11.358 0.05498,0.4177 0.33722,0.79576 0.7292,0.95018 1.8726,0.74066 4.2545,1.2159 6.9385,1.591 v 16.661 l 0.46404,0.19887 0.57452,0.26516 -0.0221,20.44 2.4528,2.6296 h 2.2539 c 0,0 2.4307,-2.6517 2.4307,-2.6517 v -20.418 l 0.99437,-0.46404 0.0221,-10.319 -0.0221,-0.0221 -10e-7,-6.3198 c 2.7023,-0.37605 5.0998,-0.84625 6.9827,-1.591 0.39198,-0.15441 0.67422,-0.53248 0.7292,-0.95017 0.17456,-1.3026 0.25798,-2.7029 0.26517,-4.1543 0.01555,-3.1426 -0.29134,-6.4789 -0.7734,-9.1703 -0.24103,-1.3457 -0.52602,-2.5359 -0.83969,-3.4913 -0.31368,-0.95546 -0.51655,-1.6667 -1.3037,-2.276 -1.2279,-0.95045 -2.8222,-1.0295 -4.5962,-1.149 -1.774,-0.11958 -3.6582,-0.11048 -5.016,-0.11048 -1.3578,0 -3.242,-0.00909 -5.016,0.11048 -1.774,0.11958 -3.3904,0.2207 -4.6183,1.1711 -0.1211,0.093737 -0.21896,0.1658 -0.30936,0.26517 L 29.015,9.7247 m 7.8666,3.7123 c 0.05562,-0.06736 0.13703,-0.13728 0.19887,-0.19887 0.17976,-0.17976 0.37174,-0.34118 0.59662,-0.46404 0.22503,-0.12224 0.47099,-0.18951 0.7292,-0.24307 0.0023,-4.95e-4 0.01977,-0.02161 0.0221,-0.0221 0.17386,-0.03558 0.34595,-0.0442 0.53033,-0.0442 0.09219,0 0.17538,-0.0091 0.26517,1e-6 1.3467,0.13677 2.4086,1.2909 2.4086,2.6737 0,1.475 -1.1987,2.6737 -2.6737,2.6737 -0.73751,0 -1.3949,-0.29008 -1.8783,-0.7734 -0.06184,-0.06159 -0.14325,-0.13152 -0.19887,-0.19887 -0.16329,-0.19785 -0.29639,-0.42327 -0.39775,-0.66291 -0.13515,-0.31953 -0.19887,-0.66981 -0.19887,-1.0386 0,-0.36879 0.06372,-0.71904 0.19887,-1.0386 0.10136,-0.23964 0.23446,-0.46506 0.39775,-0.66291 l -2e-5,1.69e-4"
           id="path94"
           inkscape:connector-curvature="0"
           style="opacity:1;fill-opacity:0.042203" />
        <path
           d="m 28.642,9.3516 c -0.27119,0.2981 -0.43186,0.63114 -0.59662,0.99437 -0.21968,0.48431 -0.4141,1.0511 -0.59662,1.7015 -0.36505,1.3008 -0.66133,2.944 -0.90598,4.7509 -0.4893,3.6137 -0.68691,7.881 -0.22097,11.358 0.05498,0.4177 0.33722,0.79576 0.7292,0.95018 1.8726,0.74066 4.2545,1.2159 6.9385,1.591 v 16.661 l 0.46404,0.19887 0.57452,0.26516 -0.0221,20.44 2.4528,2.6296 h 2.2539 c 0,0 2.4307,-2.6517 2.4307,-2.6517 v -20.418 l 0.99437,-0.46404 0.0221,-10.319 -0.0221,-0.0221 -10e-7,-6.3198 c 2.7023,-0.37605 5.0998,-0.84625 6.9827,-1.591 0.39198,-0.15441 0.67422,-0.53248 0.7292,-0.95017 0.17456,-1.3026 0.25798,-2.7029 0.26517,-4.1543 0.01555,-3.1426 -0.29134,-6.4789 -0.7734,-9.1703 -0.24103,-1.3457 -0.52602,-2.5359 -0.83969,-3.4913 -0.31368,-0.95546 -0.51655,-1.6667 -1.3037,-2.276 -1.2279,-0.95045 -2.8222,-1.0295 -4.5962,-1.149 -1.774,-0.11958 -3.6582,-0.11048 -5.016,-0.11048 -1.3578,0 -3.242,-0.00909 -5.016,0.11048 -1.774,0.11958 -3.3904,0.2207 -4.6183,1.1711 -0.1211,0.093737 -0.21896,0.1658 -0.30936,0.26517 L 28.642,9.3516 m 7.8666,3.7123 c 0.05562,-0.06736 0.13703,-0.13728 0.19887,-0.19887 0.17976,-0.17976 0.37174,-0.34118 0.59662,-0.46404 0.22503,-0.12224 0.47099,-0.18951 0.7292,-0.24307 0.0023,-4.95e-4 0.01977,-0.02161 0.0221,-0.0221 0.17386,-0.03558 0.34595,-0.0442 0.53033,-0.0442 0.09219,0 0.17538,-0.0091 0.26517,10e-7 1.3467,0.13677 2.4086,1.2909 2.4086,2.6737 0,1.475 -1.1987,2.6737 -2.6737,2.6737 -0.73751,0 -1.3949,-0.29008 -1.8783,-0.7734 -0.06184,-0.06159 -0.14325,-0.13152 -0.19887,-0.19887 -0.16329,-0.19785 -0.29639,-0.42327 -0.39775,-0.66291 -0.13515,-0.31953 -0.19887,-0.66981 -0.19887,-1.0386 0,-0.36879 0.06372,-0.71904 0.19887,-1.0386 0.10136,-0.23964 0.23446,-0.46506 0.39775,-0.66291 l -2e-5,1.69e-4"
           id="path96"
           inkscape:connector-curvature="0"
           style="opacity:1;fill-opacity:0.043063" />
        <path
           d="m 28.277,8.9865 c -0.27119,0.2981 -0.43186,0.63114 -0.59662,0.99437 -0.21968,0.48431 -0.4141,1.0511 -0.59662,1.7015 -0.36505,1.3008 -0.66133,2.944 -0.90598,4.7509 -0.4893,3.6137 -0.68691,7.881 -0.22097,11.358 0.05498,0.4177 0.33722,0.79576 0.7292,0.95018 1.8726,0.74066 4.2545,1.2159 6.9385,1.591 v 16.661 l 0.46404,0.19887 0.57452,0.26516 -0.0221,20.44 2.4528,2.6296 h 2.2539 c 0,0 2.4307,-2.6517 2.4307,-2.6517 v -20.418 l 0.99437,-0.46404 0.0221,-10.319 -0.0221,-0.0221 -10e-7,-6.3198 c 2.7023,-0.37605 5.0998,-0.84625 6.9827,-1.591 0.39198,-0.15441 0.67422,-0.53248 0.7292,-0.95017 0.17456,-1.3026 0.25798,-2.7029 0.26517,-4.1543 0.01555,-3.1426 -0.29134,-6.4789 -0.7734,-9.1703 -0.24103,-1.3457 -0.52602,-2.5359 -0.83969,-3.4913 -0.31368,-0.95546 -0.51655,-1.6667 -1.3037,-2.276 -1.2279,-0.95045 -2.8222,-1.0295 -4.5962,-1.149 -1.774,-0.11958 -3.6582,-0.11048 -5.016,-0.11048 -1.3578,0 -3.242,-0.00909 -5.016,0.11048 -1.774,0.11958 -3.3904,0.2207 -4.6183,1.1711 -0.1211,0.093736 -0.21896,0.1658 -0.30936,0.26517 L 28.277,8.9865 m 7.8666,3.7123 c 0.05562,-0.06736 0.13703,-0.13728 0.19887,-0.19887 0.17976,-0.17976 0.37174,-0.34118 0.59662,-0.46404 0.22503,-0.12224 0.47099,-0.18951 0.7292,-0.24307 0.0023,-4.95e-4 0.01977,-0.02161 0.0221,-0.0221 0.17386,-0.03558 0.34595,-0.0442 0.53033,-0.0442 0.09219,0 0.17538,-0.0091 0.26517,10e-7 1.3467,0.13677 2.4086,1.2909 2.4086,2.6737 0,1.475 -1.1987,2.6737 -2.6737,2.6737 -0.73751,0 -1.3949,-0.29008 -1.8783,-0.7734 -0.06184,-0.06159 -0.14325,-0.13152 -0.19887,-0.19887 -0.16329,-0.19785 -0.29639,-0.42327 -0.39775,-0.66291 -0.13515,-0.31953 -0.19887,-0.66981 -0.19887,-1.0386 0,-0.36879 0.06372,-0.71904 0.19887,-1.0386 0.10136,-0.23964 0.23446,-0.46506 0.39775,-0.66291 l -2e-5,1.69e-4"
           id="path98"
           inkscape:connector-curvature="0"
           style="opacity:1;fill-opacity:0.04390498" />
        <path
           d="m 27.919,8.6289 c -0.27119,0.2981 -0.43186,0.63114 -0.59662,0.99437 -0.21968,0.48431 -0.4141,1.0511 -0.59662,1.7015 -0.36505,1.3008 -0.66133,2.944 -0.90598,4.7509 -0.4893,3.6137 -0.68691,7.881 -0.22097,11.358 0.05498,0.4177 0.33722,0.79576 0.7292,0.95018 1.8726,0.74066 4.2545,1.2159 6.9385,1.591 v 16.661 l 0.46404,0.19887 0.57452,0.26516 -0.0221,20.44 2.4528,2.6296 h 2.2539 c 0,0 2.4307,-2.6517 2.4307,-2.6517 v -20.418 l 0.99437,-0.46404 0.0221,-10.319 -0.0221,-0.0221 -1e-6,-6.3198 c 2.7023,-0.37605 5.0998,-0.84625 6.9827,-1.591 0.39198,-0.15441 0.67422,-0.53248 0.7292,-0.95017 0.17456,-1.3026 0.25798,-2.7029 0.26517,-4.1543 0.01555,-3.1426 -0.29134,-6.4789 -0.7734,-9.1703 -0.24103,-1.3457 -0.52602,-2.5359 -0.83969,-3.4913 -0.31368,-0.95546 -0.51655,-1.6667 -1.3037,-2.276 -1.2279,-0.95045 -2.8222,-1.0295 -4.5962,-1.149 -1.774,-0.11958 -3.6582,-0.11048 -5.016,-0.11048 -1.3578,0 -3.242,-0.00909 -5.016,0.11048 -1.774,0.11958 -3.3904,0.2207 -4.6183,1.1711 -0.1211,0.093736 -0.21896,0.1658 -0.30936,0.26517 L 27.919,8.6289 m 7.8666,3.7123 c 0.05562,-0.06736 0.13703,-0.13728 0.19887,-0.19887 0.17976,-0.17976 0.37174,-0.34118 0.59662,-0.46404 0.22503,-0.12224 0.47099,-0.18951 0.7292,-0.24307 0.0023,-4.95e-4 0.01977,-0.02161 0.0221,-0.0221 0.17386,-0.03558 0.34595,-0.0442 0.53033,-0.0442 0.09219,0 0.17538,-0.0091 0.26517,1e-6 1.3467,0.13677 2.4086,1.2909 2.4086,2.6737 0,1.475 -1.1987,2.6737 -2.6737,2.6737 -0.73751,0 -1.3949,-0.29008 -1.8783,-0.7734 -0.06184,-0.06159 -0.14325,-0.13152 -0.19887,-0.19887 -0.16329,-0.19785 -0.29639,-0.42327 -0.39775,-0.66291 -0.13515,-0.31953 -0.19887,-0.66981 -0.19887,-1.0386 0,-0.36879 0.06372,-0.71904 0.19887,-1.0386 0.10136,-0.23964 0.23446,-0.46506 0.39775,-0.66291 l -2e-5,1.69e-4"
           id="path100"
           inkscape:connector-curvature="0"
           style="opacity:1;fill-opacity:0.04472902" />
        <path
           d="m 27.569,8.2784 c -0.27119,0.2981 -0.43186,0.63114 -0.59662,0.99437 -0.21968,0.48431 -0.4141,1.0511 -0.59662,1.7015 -0.36505,1.3008 -0.66133,2.944 -0.90598,4.7509 -0.4893,3.6137 -0.68691,7.881 -0.22097,11.358 0.05498,0.4177 0.33722,0.79576 0.7292,0.95018 1.8726,0.74066 4.2545,1.2159 6.9385,1.591 v 16.661 l 0.46404,0.19887 0.57452,0.26516 -0.0221,20.44 2.4528,2.6296 h 2.2539 c 0,0 2.4307,-2.6517 2.4307,-2.6517 v -20.418 l 0.99437,-0.46404 0.0221,-10.319 -0.0221,-0.0221 -10e-7,-6.3198 c 2.7023,-0.37605 5.0998,-0.84625 6.9827,-1.591 0.39198,-0.15441 0.67422,-0.53248 0.7292,-0.95017 0.17456,-1.3026 0.25798,-2.7029 0.26517,-4.1543 0.01555,-3.1426 -0.29134,-6.4789 -0.7734,-9.1703 -0.24103,-1.3457 -0.52602,-2.5359 -0.83969,-3.4913 -0.31368,-0.95546 -0.51655,-1.6667 -1.3037,-2.276 -1.2279,-0.95045 -2.8222,-1.0295 -4.5962,-1.149 -1.774,-0.11958 -3.6582,-0.11048 -5.016,-0.11048 -1.3578,0 -3.242,-0.00909 -5.016,0.11048 -1.774,0.11958 -3.3904,0.2207 -4.6183,1.1711 -0.1211,0.093736 -0.21896,0.1658 -0.30936,0.26517 L 27.569,8.2784 m 7.8666,3.7123 c 0.05562,-0.06736 0.13703,-0.13728 0.19887,-0.19887 0.17976,-0.17976 0.37174,-0.34118 0.59662,-0.46404 0.22503,-0.12224 0.47099,-0.18951 0.7292,-0.24307 0.0023,-4.95e-4 0.01977,-0.02161 0.0221,-0.0221 0.17386,-0.03558 0.34595,-0.0442 0.53033,-0.0442 0.09219,0 0.17538,-0.0091 0.26517,10e-7 1.3467,0.13677 2.4086,1.2909 2.4086,2.6737 0,1.475 -1.1987,2.6737 -2.6737,2.6737 -0.73751,0 -1.3949,-0.29008 -1.8783,-0.7734 -0.06184,-0.06159 -0.14325,-0.13152 -0.19887,-0.19887 -0.16329,-0.19785 -0.29639,-0.42327 -0.39775,-0.66291 -0.13515,-0.31953 -0.19887,-0.66981 -0.19887,-1.0386 0,-0.36879 0.06372,-0.71904 0.19887,-1.0386 0.10136,-0.23964 0.23446,-0.46506 0.39775,-0.66291 l -2e-5,1.69e-4"
           id="path102"
           inkscape:connector-curvature="0"
           style="opacity:1;fill-opacity:0.04553701" />
        <path
           d="m 27.225,7.9346 c -0.27119,0.2981 -0.43186,0.63114 -0.59662,0.99437 -0.21968,0.48431 -0.4141,1.0511 -0.59662,1.7015 -0.36505,1.3008 -0.66133,2.944 -0.90598,4.7509 -0.4893,3.6137 -0.68691,7.881 -0.22097,11.358 0.05498,0.4177 0.33722,0.79576 0.7292,0.95018 1.8726,0.74066 4.2545,1.2159 6.9385,1.591 v 16.661 l 0.46404,0.19887 0.57452,0.26516 -0.0221,20.44 2.4528,2.6296 h 2.2539 c 0,0 2.4307,-2.6517 2.4307,-2.6517 v -20.418 l 0.99437,-0.46404 0.0221,-10.319 -0.0221,-0.0221 -10e-7,-6.3198 c 2.7023,-0.37605 5.0998,-0.84625 6.9827,-1.591 0.39198,-0.15441 0.67422,-0.53248 0.7292,-0.95017 0.17456,-1.3026 0.25798,-2.7029 0.26517,-4.1543 0.01555,-3.1426 -0.29134,-6.4789 -0.7734,-9.1703 -0.24103,-1.3457 -0.52602,-2.5359 -0.83969,-3.4913 -0.31368,-0.95546 -0.51655,-1.6667 -1.3037,-2.276 -1.2279,-0.95045 -2.8222,-1.0295 -4.5962,-1.149 -1.774,-0.11958 -3.6582,-0.11048 -5.016,-0.11048 -1.3578,0 -3.242,-0.00909 -5.016,0.11048 -1.774,0.11958 -3.3904,0.2207 -4.6183,1.1711 -0.1211,0.093736 -0.21896,0.1658 -0.30936,0.26517 L 27.225,7.9346 m 7.8666,3.7123 c 0.05562,-0.06736 0.13703,-0.13728 0.19887,-0.19887 0.17976,-0.17976 0.37174,-0.34118 0.59662,-0.46404 0.22503,-0.12224 0.47099,-0.18951 0.7292,-0.24307 0.0023,-4.95e-4 0.01977,-0.02161 0.0221,-0.0221 0.17386,-0.03558 0.34595,-0.0442 0.53033,-0.0442 0.09219,0 0.17538,-0.0091 0.26517,10e-7 1.3467,0.13677 2.4086,1.2909 2.4086,2.6737 0,1.475 -1.1987,2.6737 -2.6737,2.6737 -0.73751,0 -1.3949,-0.29008 -1.8783,-0.7734 -0.06184,-0.06159 -0.14325,-0.13152 -0.19887,-0.19887 -0.16329,-0.19785 -0.29639,-0.42327 -0.39775,-0.66291 -0.13515,-0.31953 -0.19887,-0.66981 -0.19887,-1.0386 0,-0.36879 0.06372,-0.71904 0.19887,-1.0386 0.10136,-0.23964 0.23446,-0.46506 0.39775,-0.66291 l -2e-5,1.69e-4"
           id="path104"
           inkscape:connector-curvature="0"
           style="opacity:1;fill-opacity:0.04632999" />
        <path
           d="m 26.888,7.5971 c -0.27119,0.2981 -0.43186,0.63114 -0.59662,0.99437 -0.21968,0.48431 -0.4141,1.0511 -0.59662,1.7015 -0.36505,1.3008 -0.66133,2.944 -0.90598,4.7509 -0.4893,3.6137 -0.68691,7.881 -0.22097,11.358 0.05498,0.4177 0.33722,0.79576 0.7292,0.95018 1.8726,0.74066 4.2545,1.2159 6.9385,1.591 v 16.661 l 0.46404,0.19887 0.57452,0.26516 -0.0221,20.44 2.4528,2.6296 h 2.2539 c 0,0 2.4307,-2.6517 2.4307,-2.6517 v -20.418 l 0.99437,-0.46404 0.0221,-10.319 -0.0221,-0.0221 -1e-6,-6.3198 c 2.7023,-0.37605 5.0998,-0.84625 6.9827,-1.591 0.39198,-0.15441 0.67422,-0.53248 0.7292,-0.95017 0.17456,-1.3026 0.25798,-2.7029 0.26517,-4.1543 0.01555,-3.1426 -0.29134,-6.4789 -0.7734,-9.1703 -0.24103,-1.3457 -0.52602,-2.5359 -0.83969,-3.4913 -0.31368,-0.95546 -0.51655,-1.6667 -1.3037,-2.276 -1.2279,-0.95045 -2.8222,-1.0295 -4.5962,-1.149 -1.774,-0.11958 -3.6582,-0.11048 -5.016,-0.11048 -1.3578,0 -3.242,-0.00909 -5.016,0.11048 -1.774,0.11958 -3.3904,0.2207 -4.6183,1.1711 -0.1211,0.093736 -0.21896,0.1658 -0.30936,0.26517 L 26.888,7.5971 m 7.8666,3.7123 c 0.05562,-0.06736 0.13703,-0.13728 0.19887,-0.19887 0.17976,-0.17976 0.37174,-0.34118 0.59662,-0.46404 0.22503,-0.12224 0.47099,-0.18951 0.7292,-0.24307 0.0023,-4.95e-4 0.01977,-0.02161 0.0221,-0.0221 0.17386,-0.03558 0.34595,-0.0442 0.53033,-0.0442 0.09219,0 0.17538,-0.0091 0.26517,10e-7 1.3467,0.13677 2.4086,1.2909 2.4086,2.6737 0,1.475 -1.1987,2.6737 -2.6737,2.6737 -0.73751,0 -1.3949,-0.29008 -1.8783,-0.7734 -0.06184,-0.06159 -0.14325,-0.13152 -0.19887,-0.19887 -0.16329,-0.19785 -0.29639,-0.42327 -0.39775,-0.66291 -0.13515,-0.31953 -0.19887,-0.66981 -0.19887,-1.0386 0,-0.36879 0.06372,-0.71904 0.19887,-1.0386 0.10136,-0.23964 0.23446,-0.46506 0.39775,-0.66291 l -2e-5,1.69e-4"
           id="path106"
           inkscape:connector-curvature="0"
           style="opacity:1;fill-opacity:0.04710801" />
        <path
           d="m 26.556,7.2656 c -0.27119,0.2981 -0.43186,0.63114 -0.59662,0.99437 -0.21968,0.48431 -0.4141,1.0511 -0.59662,1.7015 -0.36505,1.3008 -0.66133,2.944 -0.90598,4.7509 -0.4893,3.6137 -0.68691,7.881 -0.22097,11.358 0.05498,0.4177 0.33722,0.79576 0.7292,0.95018 1.8726,0.74066 4.2545,1.2159 6.9385,1.591 v 16.661 l 0.46404,0.19887 0.57452,0.26516 -0.0221,20.44 2.4528,2.6296 h 2.2539 c 0,0 2.4307,-2.6517 2.4307,-2.6517 v -20.418 l 0.99437,-0.46404 0.0221,-10.319 -0.0221,-0.0221 -1e-6,-6.3198 c 2.7023,-0.37605 5.0998,-0.84625 6.9827,-1.591 0.39198,-0.15441 0.67422,-0.53248 0.7292,-0.95017 0.17456,-1.3026 0.25798,-2.7029 0.26517,-4.1543 0.01555,-3.1426 -0.29134,-6.4789 -0.7734,-9.1703 -0.24103,-1.3457 -0.52602,-2.5359 -0.83969,-3.4913 -0.31368,-0.95546 -0.51655,-1.6667 -1.3037,-2.276 -1.2279,-0.95045 -2.8222,-1.0295 -4.5962,-1.149 -1.774,-0.11958 -3.6582,-0.11048 -5.016,-0.11048 -1.3578,0 -3.242,-0.00909 -5.016,0.11048 -1.774,0.11958 -3.3904,0.2207 -4.6183,1.1711 -0.1211,0.093736 -0.21896,0.1658 -0.30936,0.26517 L 26.556,7.2656 m 7.8666,3.7123 c 0.05562,-0.06736 0.13703,-0.13728 0.19887,-0.19887 0.17976,-0.17976 0.37174,-0.34118 0.59662,-0.46404 0.22503,-0.12224 0.47099,-0.18951 0.7292,-0.24307 0.0023,-4.95e-4 0.01977,-0.02161 0.0221,-0.0221 0.17386,-0.03558 0.34595,-0.0442 0.53033,-0.0442 0.09219,0 0.17538,-0.0091 0.26517,10e-7 1.3467,0.13677 2.4086,1.2909 2.4086,2.6737 0,1.475 -1.1987,2.6737 -2.6737,2.6737 -0.73751,0 -1.3949,-0.29008 -1.8783,-0.7734 -0.06184,-0.06159 -0.14325,-0.13152 -0.19887,-0.19887 -0.16329,-0.19785 -0.29639,-0.42327 -0.39775,-0.66291 -0.13515,-0.31953 -0.19887,-0.66981 -0.19887,-1.0386 0,-0.36879 0.06372,-0.71904 0.19887,-1.0386 0.10136,-0.23964 0.23446,-0.46506 0.39775,-0.66291 l -2e-5,1.69e-4"
           id="path108"
           inkscape:connector-curvature="0"
           style="opacity:1;fill-opacity:0.04787298" />
        <path
           d="m 26.23,6.9398 c -0.27119,0.2981 -0.43186,0.63114 -0.59662,0.99437 -0.21968,0.48431 -0.4141,1.0511 -0.59662,1.7015 -0.36505,1.3008 -0.66133,2.944 -0.90598,4.7509 -0.4893,3.6137 -0.68691,7.881 -0.22097,11.358 0.05498,0.4177 0.33722,0.79576 0.7292,0.95018 1.8726,0.74066 4.2545,1.2159 6.9385,1.591 v 16.661 l 0.46404,0.19887 0.57452,0.26516 -0.0221,20.44 2.4528,2.6296 h 2.2539 c 0,0 2.4307,-2.6517 2.4307,-2.6517 v -20.418 l 0.99437,-0.46404 0.0221,-10.319 -0.0221,-0.0221 -1e-6,-6.3198 c 2.7023,-0.37605 5.0998,-0.84625 6.9827,-1.591 0.39198,-0.15441 0.67422,-0.53248 0.7292,-0.95017 0.17456,-1.3026 0.25798,-2.7029 0.26517,-4.1543 0.01555,-3.1426 -0.29134,-6.4789 -0.7734,-9.1703 -0.24103,-1.3457 -0.52602,-2.5359 -0.83969,-3.4913 -0.31368,-0.95546 -0.51655,-1.6667 -1.3037,-2.276 -1.2279,-0.95045 -2.8222,-1.0295 -4.5962,-1.149 -1.774,-0.11958 -3.6582,-0.11048 -5.016,-0.11048 -1.3578,0 -3.242,-0.00909 -5.016,0.11048 -1.774,0.11958 -3.3904,0.2207 -4.6183,1.1711 -0.1211,0.093736 -0.21896,0.1658 -0.30936,0.26517 L 26.23,6.9398 m 7.8666,3.7123 c 0.05562,-0.06736 0.13703,-0.13728 0.19887,-0.19887 0.17976,-0.17976 0.37174,-0.34118 0.59662,-0.46404 0.22503,-0.12224 0.47099,-0.18951 0.7292,-0.24307 0.0023,-4.95e-4 0.01977,-0.02161 0.0221,-0.0221 0.17386,-0.03558 0.34595,-0.0442 0.53033,-0.0442 0.09219,0 0.17538,-0.0091 0.26517,1e-6 1.3467,0.13677 2.4086,1.2909 2.4086,2.6737 0,1.475 -1.1987,2.6737 -2.6737,2.6737 -0.73751,0 -1.3949,-0.29008 -1.8783,-0.7734 -0.06184,-0.06159 -0.14325,-0.13152 -0.19887,-0.19887 -0.16329,-0.19785 -0.29639,-0.42327 -0.39775,-0.66291 -0.13515,-0.31953 -0.19887,-0.66981 -0.19887,-1.0386 0,-0.36879 0.06372,-0.71904 0.19887,-1.0386 0.10136,-0.23964 0.23446,-0.46506 0.39775,-0.66291 l -2e-5,1.69e-4"
           id="path110"
           inkscape:connector-curvature="0"
           style="opacity:1;fill-opacity:0.04862402" />
        <path
           d="m 25.91,6.6193 c -0.27119,0.2981 -0.43186,0.63114 -0.59662,0.99437 -0.21968,0.48431 -0.4141,1.0511 -0.59662,1.7015 -0.36505,1.3008 -0.66133,2.944 -0.90598,4.7509 -0.4893,3.6137 -0.68691,7.881 -0.22097,11.358 0.05498,0.4177 0.33722,0.79576 0.7292,0.95018 1.8726,0.74066 4.2545,1.2159 6.9385,1.591 v 16.661 l 0.46404,0.19887 0.57452,0.26516 -0.0221,20.44 2.4528,2.6296 h 2.2539 c 0,0 2.4307,-2.6517 2.4307,-2.6517 v -20.418 l 0.99437,-0.46404 0.0221,-10.319 -0.0221,-0.0221 -1e-6,-6.3198 c 2.7023,-0.37605 5.0998,-0.84625 6.9827,-1.591 0.39198,-0.15441 0.67422,-0.53248 0.7292,-0.95017 0.17456,-1.3026 0.25798,-2.7029 0.26517,-4.1543 0.01555,-3.1426 -0.29134,-6.4789 -0.7734,-9.1703 -0.24103,-1.3457 -0.52602,-2.5359 -0.83969,-3.4913 -0.31368,-0.95546 -0.51655,-1.6667 -1.3037,-2.276 -1.2279,-0.95045 -2.8222,-1.0295 -4.5962,-1.149 -1.774,-0.11958 -3.6582,-0.11048 -5.016,-0.11048 -1.3578,0 -3.242,-0.00909 -5.016,0.11048 -1.774,0.11958 -3.3904,0.2207 -4.6183,1.1711 -0.1211,0.093736 -0.21896,0.1658 -0.30936,0.26517 L 25.91,6.6193 m 7.8666,3.7123 c 0.05562,-0.06736 0.13703,-0.13728 0.19887,-0.19887 0.17976,-0.17976 0.37174,-0.34118 0.59662,-0.46404 0.22503,-0.12224 0.47099,-0.18951 0.7292,-0.24307 0.0023,-4.95e-4 0.01977,-0.02161 0.0221,-0.0221 0.17386,-0.03558 0.34595,-0.0442 0.53033,-0.0442 0.09219,0 0.17538,-0.0091 0.26517,10e-7 1.3467,0.13677 2.4086,1.2909 2.4086,2.6737 0,1.475 -1.1987,2.6737 -2.6737,2.6737 -0.73751,0 -1.3949,-0.29008 -1.8783,-0.7734 -0.06184,-0.06159 -0.14325,-0.13152 -0.19887,-0.19887 -0.16329,-0.19785 -0.29639,-0.42327 -0.39775,-0.66291 -0.13515,-0.31953 -0.19887,-0.66981 -0.19887,-1.0386 0,-0.36879 0.06372,-0.71904 0.19887,-1.0386 0.10136,-0.23964 0.23446,-0.46506 0.39775,-0.66291 l -2e-5,1.69e-4"
           id="path112"
           inkscape:connector-curvature="0"
           style="opacity:1;fill-opacity:0.04936302" />
      </g>
    </g>
    <g
       transform="matrix(0,0.2374,-0.2374,0,115.29,6.8055)"
       id="g132">
      <path
         d="m 60.875,280.88 c -13.237,-0.0655 -27.194,1.2819 -38.531,3.3125 -5.6684,1.0153 -10.694,2.21 -14.719,3.5312 -4.0247,1.3213 -7.0272,2.0904 -9.5938,5.4062 -4.0035,5.1723 -4.3713,11.902 -4.875,19.375 -0.5037,7.473 -0.40625,15.468 -0.40625,21.188 0,5.72 -0.097447,13.715 0.40625,21.188 0.5037,7.4726 0.87146,14.203 4.875,19.375 1.5794,2.0404 3.335,2.8872 5.375,3.8125 2.04,0.9253 4.4165,1.7312 7.1562,2.5 5.4795,1.5377 12.389,2.8757 20,3.9062 15.222,2.0611 33.198,2.9002 47.844,0.9375 1.7595,-0.23158 3.3496,-1.4739 4,-3.125 3.1641,-7.9996 5.1911,-18.152 6.7812,-29.656 v -37.875 c -1.5902,-11.504 -3.6171,-21.657 -6.7812,-29.656 -0.65042,-1.6511 -2.2405,-2.8934 -4,-3.125 -5.4869,-0.73531 -11.418,-1.0635 -17.531,-1.0938 z M 22,322.442 c 6.2132,0 11.25,5.0368 11.25,11.25 0,3.1066 -1.2454,5.9016 -3.2812,7.9375 -0.25944,0.26051 -0.5287,0.51578 -0.8125,0.75 -0.83343,0.68781 -1.7718,1.2605 -2.7812,1.6875 -1.3459,0.56928 -2.8217,0.875 -4.375,0.875 -1.5533,0 -3.0291,-0.30572 -4.375,-0.875 -1.0094,-0.42696 -1.9478,-0.99969 -2.7812,-1.6875 -0.2838,-0.23422 -0.55306,-0.48949 -0.8125,-0.75 -0.75721,-0.75721 -1.42,-1.6152 -1.9375,-2.5625 -0.0044,-0.008 0.0044,-0.0231 0,-0.0312 -0.51492,-0.94789 -0.89938,-1.9748 -1.125,-3.0625 -0.002,-0.01 0.002,-0.0213 0,-0.0312 -0.14986,-0.73235 -0.21875,-1.4734 -0.21875,-2.25 0,-0.38833 0.02409,-0.77806 0.0625,-1.1562 0.57611,-5.6729 5.3626,-10.094 11.188,-10.094 z"
         id="path118"
         inkscape:connector-curvature="0"
         style="color:#000000;fill:url(#c)" />
      <path
         transform="matrix(-3.7777,-3.7777,3.7777,-3.7777,106.49,579.25)"
         d="m 41.367,13.707 c -1.4376,-0.1831 -8.0618,4.6278 -11.25,8.8027 0.5854,1.3515 1.6221,2.929 2.9121,4.6328 1.3143,-0.19508 2.275,0.02928 3.6387,1.1914 1.1621,1.3636 1.3865,2.3244 1.1914,3.6387 1.7038,1.29 3.2813,2.3267 4.6328,2.9121 0.7828,-0.59778 1.5866,-1.3151 2.377,-2.0977 3.4248,-3.3911 6.5726,-7.9843 6.4238,-9.1523 -0.17873,-1.4032 -2.872,-3.997 -4.4004,-5.5254 C 45.364,16.5809 42.7702,13.8857 41.367,13.707 Z m 2.3164,4.4434 c 0.81079,-1e-6 1.6216,0.31107 2.2402,0.92969 1.2372,1.2372 1.2372,3.2393 0,4.4766 -1.2372,1.2372 -3.2452,1.2372 -4.4824,0 -1.2372,-1.2372 -1.2372,-3.2393 0,-4.4766 0.61861,-0.61861 1.4314,-0.92969 2.2422,-0.92969 z"
         id="path120"
         inkscape:connector-curvature="0"
         style="fill:url(#d)" />
      <path
         d="m 88.75,314.44 v 38.531 h 70.531 l 2,-4.25 h 86.031 l 11.125,-10.25 v -9.5312 l -11.125,-10.281 h -86.031 l -2,-4.2188 z"
         id="path122"
         inkscape:connector-curvature="0"
         style="color:#000000;fill:#000000;fill-opacity:0.18996002" />
      <path
         d="m 115.78,333.59 v 19.375 h 43.5 l 2,-4.25 h 86.031 l 11.125,-10.25 v -4.875 z"
         id="path124"
         inkscape:connector-curvature="0"
         style="color:#000000;fill:url(#e)" />
      <path
         d="m 115.78,314.44 v 19.156 h 142.66 v -4.6562 l -11.125,-10.281 h -86.031 l -2,-4.2188 z"
         id="path126"
         inkscape:connector-curvature="0"
         style="color:#000000;fill:url(#f)" />
      <path
         d="m 88.75,314.44 v 38.531 h 70.531 l 0.90625,-1.9375 c -38.794,-0.24759 -50.016,-14.156 -36.969,-14.156 h 135.06 v -6.3438 h -135.06 c -13.047,0 -1.8249,-13.909 36.969,-14.156 l -0.90625,-1.9375 z"
         id="path128"
         inkscape:connector-curvature="0"
         style="color:#000000;fill:url(#g)" />
      <path
         d="m 44.258,329.04 h 7.7335 v -7.7335 H 44.258 Z m 1.5467,15.467 h 4.6401 v -4.6401 h -4.6401 z m 0,-7.7335 h 6.1868 v -6.1868 h -6.1868 z m 7.7335,7.7335 h 6.1868 v -6.1868 h -6.1868 z m 0,-7.7335 h 6.1868 v -6.1868 h -6.1868 z m 0,-7.7335 h 6.1868 v -6.1868 h -6.1868 z m 7.7335,17.014 h 7.7335 v -7.7335 h -7.7335 z m 0,-9.2802 h 6.1868 v -6.1868 h -6.1868 z m 1.5467,-9.2802 h 4.6401 v -4.6401 h -4.6401 z"
         id="path130"
         inkscape:connector-curvature="0"
         style="color:#000000;fill:#001e42;fill-opacity:0.13620001" />
    </g>
  </g>
</svg>
