<?xml version="1.0" encoding="UTF-8" standalone="no"?>
<svg
   xmlns:dc="http://purl.org/dc/elements/1.1/"
   xmlns:cc="http://creativecommons.org/ns#"
   xmlns:rdf="http://www.w3.org/1999/02/22-rdf-syntax-ns#"
   xmlns:svg="http://www.w3.org/2000/svg"
   xmlns="http://www.w3.org/2000/svg"
   xmlns:xlink="http://www.w3.org/1999/xlink"
   xmlns:sodipodi="http://sodipodi.sourceforge.net/DTD/sodipodi-0.dtd"
   xmlns:inkscape="http://www.inkscape.org/namespaces/inkscape"
   inkscape:version="1.0beta2 (2b71d25d45, 2019-12-03)"
   sodipodi:docname="sanbox.svg"
   id="svg21"
   version="1.1"
   height="64"
   width="64">
  <sodipodi:namedview
     inkscape:current-layer="svg21"
     inkscape:window-maximized="1"
     inkscape:window-y="26"
     inkscape:window-x="0"
     inkscape:cy="32"
     inkscape:cx="32"
     inkscape:zoom="12.34375"
     showgrid="false"
     id="namedview23"
     inkscape:window-height="1022"
     inkscape:window-width="1920"
     inkscape:pageshadow="2"
     inkscape:pageopacity="0"
     guidetolerance="10"
     gridtolerance="10"
     objecttolerance="10"
     borderopacity="1"
     inkscape:document-rotation="0"
     bordercolor="#666666"
     pagecolor="#ffffff" />
  <defs
     id="defs7">
    <radialGradient
       gradientUnits="userSpaceOnUse"
       gradientTransform="matrix(1.1 0 0 1.0312 -3.2 -1.0625)"
       r="32"
       cy="40.788"
       cx="32"
       id="a">
      <stop
         style="stop-color:#e5f0fa;stop-opacity:1"
         id="stop2"
         offset="0"
         stop-color="#4290d6" />
      <stop
         style="stop-color:#e5f3fa;stop-opacity:1"
         id="stop4"
         offset="1"
         stop-color="#3ca8dd" />
    </radialGradient>
    <rect
       id="SVGID_1_"
       x="102.2"
       y="13.3"
       width="146.4"
       height="163.2" />
    <polyline
       id="SVGID_3_"
       points="-24.5,169.5 -24.5,-54.7 250,-54.7 250,169.5   " />
    <clipPath
       id="SVGID_2_">
      <use
         id="use861"
         style="overflow:visible"
         xlink:href="#SVGID_1_"
         x="0"
         y="0"
         width="100%"
         height="100%" />
    </clipPath>
    <clipPath
       id="SVGID_4_">
      <use
         id="use913"
         style="overflow:visible"
         xlink:href="#SVGID_3_"
         x="0"
         y="0"
         width="100%"
         height="100%" />
    </clipPath>
    <rect
       height="163.2"
       width="146.39999"
       y="13.3"
       x="102.2"
       id="rect936" />
    <polyline
       points="-24.5,169.5 -24.5,-54.7 250,-54.7 250,169.5   "
       id="polyline964" />
  </defs>
  <metadata
     id="metadata9">
    <rdf:RDF>
      <cc:Work
         rdf:about="">
        <dc:format>image/svg+xml</dc:format>
        <dc:type
           rdf:resource="http://purl.org/dc/dcmitype/StillImage" />
        <dc:title></dc:title>
      </cc:Work>
    </rdf:RDF>
  </metadata>
  <path
     id="path11"
     fill="url(#a)"
     color="#000000"
     d="m0 1v33 28l2 2h30 30l2-2v-28-33h-32z" />
  <g
     id="g972"
     transform="matrix(0.17706065,0,0,0.17706065,2.6610497,3.9526082)">
    <rect
       id="rect850"
       height="73.900002"
       width="279"
       class="st0"
       y="236.10001"
       x="26.200001" />
    <rect
       id="rect852"
       height="34.5"
       width="317.60001"
       class="st1"
       y="201.7"
       x="6.9000001" />
    <polygon
       id="polygon854"
       points="57.5,133.5 47.5,133.5 6.9,201.7 324.5,201.7 283.9,132.7 273.9,132.7 "
       class="st2" />
    <polygon
       id="polygon856"
       points="289.3,186.9 267.3,146.7 63.1,146.7 42.1,186.9 "
       class="st3" />
    <g
       id="g884">
      <defs
         id="defs859">
        <rect
           height="163.2"
           width="146.39999"
           y="13.3"
           x="102.2"
           id="rect1086" />
      </defs>
      <clipPath
         id="clipPath994">
        <use
           id="use992"
           style="overflow:visible"
           xlink:href="#SVGID_1_"
           x="0"
           y="0"
           width="100%"
           height="100%" />
      </clipPath>
      <g
         id="g882"
         clip-path="url(#SVGID_2_)"
         class="st4">
        <g
           id="g868">
          <polygon
             id="polygon864"
             points="199.3,66.3 199.3,44.8 124.4,44.8 124.4,183.3 220.8,183.3 220.8,66.3 "
             class="st5" />
          <polygon
             id="polygon866"
             points="199.3,44.8 199.3,66.3 220.8,66.3 "
             class="st6" />
        </g>
        <line
           id="line870"
           y2="58.599998"
           x2="190.8"
           y1="58.599998"
           x1="139.60001"
           class="st7" />
        <line
           id="line872"
           y2="74.300003"
           x2="207.8"
           y1="74.300003"
           x1="139.60001"
           class="st7" />
        <line
           id="line874"
           y2="90.099998"
           x2="190.8"
           y1="90.099998"
           x1="139.60001"
           class="st7" />
        <line
           id="line876"
           y2="105.8"
           x2="199.3"
           y1="105.8"
           x1="139.60001"
           class="st7" />
        <line
           id="line878"
           y2="121.6"
           x2="180.7"
           y1="121.6"
           x1="139.60001"
           class="st7" />
        <line
           id="line880"
           y2="137.3"
           x2="157"
           y1="137.3"
           x1="139.60001"
           class="st8" />
      </g>
    </g>
    <circle
       id="circle886"
       r="1.9"
       cy="168.8"
       cx="70.099998"
       class="st9" />
    <g
       id="g908">
      <rect
         id="rect888"
         height="9.3000002"
         width="44.900002"
         class="st10"
         transform="matrix(0.7189,0.6951,-0.6951,0.7189,108.7669,-189.5096)"
         y="35.099998"
         x="266.29999" />
      <rect
         id="rect890"
         height="111.8"
         width="41.799999"
         class="st11"
         transform="rotate(44.0033,245.77875,84.259689)"
         y="28.299999"
         x="224.89999" />
      <g
         id="g896">
        <polygon
           id="polygon892"
           points="202.3,139.6 222,139 191.9,110 192,129.7 "
           class="st12" />
        <polygon
           id="polygon894"
           points="192,140 202.3,139.6 192,129.7 "
           class="st13" />
      </g>
      <rect
         id="rect898"
         height="9.3000002"
         width="6.1999998"
         class="st14"
         transform="matrix(0.7189,0.6951,-0.6951,0.7189,95.5214,-183.627)"
         y="21.6"
         x="271.70001" />
      <rect
         id="rect900"
         height="9.3000002"
         width="6.4000001"
         class="st14"
         transform="matrix(0.7189,0.6951,-0.6951,0.7189,121.9862,-195.5794)"
         y="48.400002"
         x="299.60001" />
      <rect
         id="rect902"
         height="112.3"
         width="6.1999998"
         class="st15"
         transform="matrix(0.7189,0.6951,-0.6951,0.7189,113.9432,-142.1481)"
         y="13.7"
         x="229.60001" />
      <rect
         id="rect904"
         height="112.3"
         width="6.1999998"
         class="st15"
         transform="matrix(0.7189,0.6951,-0.6951,0.7189,140.4341,-153.9133)"
         y="40.599998"
         x="257.39999" />
      <path
         id="path906"
         d="M 321.9,26.2 301.2,6.2 C 298,3.1 293,3 290.2,6 v 0 l -14.3,14.8 32.4,31.3 14.3,-14.8 v 0 c 2.8,-3 2.5,-8 -0.7,-11.1 z"
         class="st16"
         inkscape:connector-curvature="0" />
    </g>
    <g
       id="g918">
      <defs
         id="defs911">
        <polyline
           points="-24.5,169.5 -24.5,-54.7 250,-54.7 250,169.5   "
           id="polyline1114" />
      </defs>
      <clipPath
         id="clipPath1023">
        <use
           id="use1021"
           style="overflow:visible"
           xlink:href="#SVGID_3_"
           x="0"
           y="0"
           width="100%"
           height="100%" />
      </clipPath>
      <path
         id="path916"
         clip-path="url(#SVGID_4_)"
         d="m 59.9,69.8 c -3.9,-1.2 -47.2,22.1 -48,25.8 -0.9,3 13.8,28.7 21.6,37.2 7.2,7.9 21.1,11.2 21.1,11.2 l 39.9,74.1 11.1,-6 11.1,-6 L 76.8,132 c 0,0 4.8,-12.1 2.2,-23.8 C 76.7,97.2 63.8,71 59.9,69.8 Z m 5.8,27.1 c 7.6,14.2 11.4,24.2 -4.4,32.7 -16.9,9.1 -24.6,-5.4 -30.2,-16 C 25.5,103 23.4,99.4 23.4,99.4 L 56,81.7 c 0,0 3.2,3.1 9.7,15.2 z"
         class="st17"
         inkscape:connector-curvature="0" />
    </g>
    <path
       id="path920"
       d="m 50.7,179.7 c 0,0 20.6,-19.1 40.7,-13 22,6.7 23.3,-12 65.9,-12 39.9,4 59.2,14.9 75.4,8.7 36.9,-14 47.7,16.3 47.7,16.3 l 3,3.7 -232.7,1 z"
       class="st18"
       inkscape:connector-curvature="0" />
  </g>
  <path
     style="fill:#9ef2fe;fill-opacity:1"
     id="path13"
     fill="#6debfd"
     color="#000000"
     d="m2 0-2 1v1h32 32v-1l-2-1h-30z" />
  <path
     id="path15"
     fill="#99f0ff"
     d="m0 1v3l2-2z" />
  <path
     id="path17"
     fill-opacity=".99741"
     fill="#4bcee9"
     d="m64 4-2-2 2-1z" />
  <style
     type="text/css"
     id="style848">
	.st0{fill:#29A87A;stroke:#238C64;stroke-width:6;stroke-linecap:round;stroke-linejoin:round;stroke-miterlimit:10;}
	.st1{fill:#2FCC9A;stroke:#29AA7B;stroke-width:6;stroke-linecap:round;stroke-linejoin:round;stroke-miterlimit:10;}
	.st2{fill:#37E2A4;stroke:#29AA7B;stroke-width:6;stroke-linecap:round;stroke-linejoin:round;stroke-miterlimit:10;}
	.st3{fill:#FFDF97;stroke:#C1A46B;stroke-width:6;stroke-linecap:round;stroke-linejoin:round;stroke-miterlimit:10;}
	.st4{clip-path:url(#SVGID_2_);}
	.st5{fill:#FFFFFF;stroke:#999999;stroke-width:6;stroke-linecap:round;stroke-linejoin:round;stroke-miterlimit:10;}
	.st6{fill:#999999;stroke:#999999;stroke-width:6;stroke-linecap:round;stroke-linejoin:round;stroke-miterlimit:10;}
	.st7{fill:none;stroke:#999999;stroke-width:7;stroke-linecap:round;stroke-linejoin:round;stroke-miterlimit:10;}
	.st8{fill:none;stroke:#333333;stroke-width:7;stroke-linecap:round;stroke-linejoin:round;stroke-miterlimit:10;}
	.st9{fill:#C1A46B;}
	.st10{fill:#B3B3B3;}
	.st11{fill:#F7D845;stroke:#F7D845;stroke-width:4;stroke-linejoin:round;stroke-miterlimit:10;}
	.st12{fill:#E8C5A7;stroke:#E8C5A7;stroke-width:4;stroke-linecap:round;stroke-linejoin:round;stroke-miterlimit:10;}
	.st13{fill:#3D3D3D;stroke:#3D3D3D;stroke-width:4;stroke-miterlimit:10;}
	.st14{fill:#C1C1C1;}
	.st15{fill:#F5A837;}
	.st16{fill:#F36A9F;}
	
		.st17{clip-path:url(#SVGID_4_);fill:#8473FF;stroke:#675FD6;stroke-width:4;stroke-linecap:round;stroke-linejoin:round;stroke-miterlimit:10;}
	.st18{fill:#FFDF97;}
</style>
</svg>
