<?xml version="1.0" encoding="UTF-8" standalone="no"?>
<!-- Created with Inkscape (http://www.inkscape.org/) -->

<svg
   xmlns:dc="http://purl.org/dc/elements/1.1/"
   xmlns:cc="http://creativecommons.org/ns#"
   xmlns:rdf="http://www.w3.org/1999/02/22-rdf-syntax-ns#"
   xmlns:svg="http://www.w3.org/2000/svg"
   xmlns="http://www.w3.org/2000/svg"
   xmlns:sodipodi="http://sodipodi.sourceforge.net/DTD/sodipodi-0.dtd"
   xmlns:inkscape="http://www.inkscape.org/namespaces/inkscape"
   version="1.1"
   width="100%"
   height="100%"
   viewBox="0 0 22 22"
   id="svg"
   inkscape:version="0.48.5 r10040"
   sodipodi:docname="connected.svg">
  <sodipodi:namedview
     pagecolor="#ffffff"
     bordercolor="#666666"
     borderopacity="1"
     objecttolerance="10"
     gridtolerance="10"
     guidetolerance="10"
     inkscape:pageopacity="0"
     inkscape:pageshadow="2"
     inkscape:window-width="1920"
     inkscape:window-height="1018"
     id="namedview50"
     showgrid="false"
     inkscape:zoom="10.727273"
     inkscape:cx="11"
     inkscape:cy="18.579096"
     inkscape:window-x="-4"
     inkscape:window-y="-3"
     inkscape:window-maximized="1"
     inkscape:current-layer="svg" />
  <defs
     id="defs81">
    <style
       type="text/css"
       id="current-color-scheme" />
  </defs>
  <metadata
     id="metadata34">
    <rdf:RDF>
      <cc:Work
         rdf:about="">
        <dc:format>image/svg+xml</dc:format>
        <dc:type
           rdf:resource="http://purl.org/dc/dcmitype/StillImage" />
        <dc:title />
      </cc:Work>
    </rdf:RDF>
  </metadata>
  <g
     transform="translate(-225,-1237.3622)"
     id="software-updates-base">
    <rect
       width="22"
       height="22.000017"
       x="225"
       y="1237.3622"
       id="rect8131"
       style="opacity:0.01000001;fill:#fdbc4b;fill-opacity:0.00392157;stroke:none" />
    <path
       d="m 242.95,1244.4122 -0.725,0.725 c 0.49737,0.9629 0.775,2.0625 0.775,3.225 0,3.878 -3.12203,7 -7,7 -1.16251,0 -2.26209,-0.2776 -3.225,-0.775 l -0.725,0.725 c 1.16579,0.662 2.50829,1.05 3.95,1.05 4.43197,0 8,-3.568 8,-8 0,-1.4417 -0.38795,-2.7842 -1.05,-3.95 z m -6.95,-4.05 c -4.43197,0 -8,3.568 -8,8 0,1.4417 0.38795,2.7842 1.05,3.95 l 0.725,-0.725 c -0.49738,-0.9628 -0.775,-2.0625 -0.775,-3.225 0,-3.878 3.12203,-7 7,-7 1.16251,0 2.26209,0.2776 3.225,0.775 l 0.725,-0.725 c -1.16579,-0.662 -2.50829,-1.05 -3.95,-1.05 z"
       id="path3009"
       style="fill:#666666;fill-opacity:1;stroke:none" />
    <path
       d="m 233,1247.3622 c -0.55229,0 -1,0.4477 -1,1 0,0.5523 0.44771,1 1,1 0.55228,0 1,-0.4477 1,-1 0,-0.5523 -0.44772,-1 -1,-1 z"
       id="path3007"
       style="fill:#666666;fill-opacity:1;stroke:none" />
    <path
       d="m 236,1247.3622 c -0.55229,0 -1,0.4477 -1,1 0,0.5523 0.44771,1 1,1 0.55228,0 1,-0.4477 1,-1 0,-0.5523 -0.44772,-1 -1,-1 z"
       id="path3005"
       style="fill:#666666;fill-opacity:1;stroke:none" />
    <path
       d="m 239,1247.3622 c -0.55229,0 -1,0.4477 -1,1 0,0.5523 0.44771,1 1,1 0.55228,0 1,-0.4477 1,-1 0,-0.5523 -0.44772,-1 -1,-1 z"
       id="path8135"
       style="fill:#666666;fill-opacity:1;stroke:none" />
  </g>
</svg>
